<svg xmlns="http://www.w3.org/2000/svg" fill="none" viewBox="0 0 100 100" id="Axios--Streamline-Svg-Logos.svg" height="100" width="100"><desc>Axios Streamline Icon: https://streamlinehq.com</desc><path fill="#5A29E4" d="M49.639270833333335 44.620000000000005v11.50625l-1.2540625 1.01V47.56458333333334h-2.360520833333333l3.614583333333334 -2.9445833333333336Zm43.49333333333333 -1.7560416666666667c1.0501041666666668 0 2.0252083333333335 0.15833333333333335 2.9253125000000004 0.4751041666666667 0.8659375000000001 0.29906250000000006 1.6128125000000002 0.6354166666666667 2.2407291666666667 1.0088541666666668l0.10958333333333334 0.06625 -1.3001041666666668 2.4753125000000002c-0.11864583333333334 -0.09708333333333334 -0.2861458333333334 -0.20812500000000003 -0.5025000000000001 -0.3330208333333333l-0.12291666666666667 -0.06958333333333333 -0.1325 -0.07239583333333334 -0.14229166666666668 -0.075c-0.4 -0.21677083333333336 -0.8751041666666667 -0.4001041666666667 -1.4251041666666668 -0.5501041666666667 -0.5501041666666667 -0.16666666666666669 -1.116875 -0.25 -1.7003125000000001 -0.25 -1.566875 0 -2.3503125000000002 0.4416666666666667 -2.3503125000000002 1.3251041666666667 0 0.5167708333333334 0.2834375 0.8834375 0.8502083333333335 1.1002083333333335l0.1290625 0.04677083333333334 0.13729166666666667 0.04760416666666667 0.14541666666666667 0.04833333333333333 0.1535416666666667 0.04916666666666667 0.16177083333333334 0.049895833333333334 0.16989583333333333 0.050625c0.029062500000000005 0.0084375 0.05833333333333334 0.016979166666666667 0.08802083333333334 0.025625000000000002l0.1821875 0.051770833333333335 0.19031250000000002 0.052500000000000005 0.19854166666666667 0.05333333333333334 0.20666666666666667 0.05416666666666667 0.2147916666666667 0.05479166666666667 0.3376041666666667 0.08375 0.23520833333333335 0.05677083333333334c0.9834375000000001 0.25 1.8335416666666668 0.5334375 2.5503125000000004 0.8501041666666668 0.7029166666666666 0.30354166666666665 1.245 0.7065625000000001 1.6263541666666668 1.2090625000000002l0.04885416666666667 0.06614583333333333c0.4001041666666667 0.5166666666666667 0.6001041666666667 1.2001041666666667 0.6001041666666667 2.0502083333333334 0 1.0334375 -0.2666666666666667 1.8669791666666669 -0.8001041666666667 2.5003125 -0.5167708333333334 0.6167708333333334 -1.2002083333333333 1.066875 -2.0503125 1.3502083333333335 -0.8501041666666668 0.2666666666666667 -1.766875 0.4001041666666667 -2.7503125 0.4001041666666667 -1.133541666666667 0 -2.2586458333333335 -0.15843750000000004 -3.375416666666667 -0.4751041666666667 -1.0636458333333334 -0.3016666666666667 -2.0139583333333335 -0.7090625 -2.850729166666667 -1.2223958333333333l-0.1246875 -0.0778125 1.3501041666666669 -2.6253125000000006c0.21677083333333336 0.21666666666666667 0.5751041666666667 0.4584375 1.0752083333333333 0.7251041666666668 0.5166666666666667 0.2666666666666667 1.1167708333333335 0.4917708333333334 1.8002083333333334 0.6751041666666667 0.6834375 0.18333333333333335 1.4085416666666668 0.275 2.1753125 0.275 1.5335416666666668 0 2.3003125 -0.4083333333333334 2.3003125 -1.2251041666666667 0 -0.5501041666666667 -0.3584375 -0.941875 -1.0752083333333333 -1.1752083333333334l-0.17229166666666668 -0.060520833333333336 -0.1809375 -0.06145833333333334 -0.18968750000000004 -0.06239583333333334 -0.19822916666666668 -0.06333333333333334 -0.20697916666666666 -0.064375 -0.21552083333333336 -0.06520833333333334c-0.036666666666666674 -0.011041666666666667 -0.07364583333333334 -0.021979166666666668 -0.11104166666666668 -0.03302083333333333l-0.22843750000000002 -0.06677083333333335 -0.23718750000000002 -0.06770833333333334 -0.2457291666666667 -0.06864583333333334 -0.2544791666666667 -0.06958333333333333 -0.39781250000000007 -0.10625 -0.13697916666666668 -0.035833333333333335c-1.433541666666667 -0.3666666666666667 -2.5003125 -0.8334375 -3.200416666666667 -1.4002083333333335 -0.6834375 -0.5834375 -1.0251041666666667 -1.416875 -1.0251041666666667 -2.5003125 0 -0.9667708333333335 0.2416666666666667 -1.7753125 0.725 -2.4253125000000004 0.5001041666666667 -0.6501041666666667 1.166875 -1.1418750000000002 2.0003125 -1.4752083333333332 0.8501041666666668 -0.3334375 1.7752083333333335 -0.5001041666666667 2.775416666666667 -0.5001041666666667Zm-23.187500000000004 0.025c1.0578125 0 2.0236458333333336 0.19270833333333334 2.8965625000000004 0.5779166666666666l0.10437500000000001 0.0471875c0.9001041666666667 0.4 1.666875 0.9417708333333334 2.3003125 1.6252083333333336 0.6501041666666667 0.6667708333333334 1.1495833333333334 1.4252083333333334 1.4996875 2.2753125 0.35000000000000003 0.8501041666666668 0.5255208333333333 1.7168750000000002 0.5255208333333333 2.6003125000000002 0 0.9167708333333334 -0.18333333333333335 1.8003125 -0.55 2.6504166666666666 -0.3667708333333334 0.8334375 -0.8840625000000001 1.5835416666666668 -1.5507291666666667 2.2503125 -0.6501041666666667 0.6501041666666667 -1.4246875 1.1667708333333335 -2.3247916666666666 1.5502083333333334 -0.9002083333333334 0.38333333333333336 -1.8836458333333335 0.5750000000000001 -2.9504166666666665 0.5750000000000001 -1.1002083333333335 0 -2.1003125000000002 -0.19166666666666668 -3.0004166666666667 -0.5750000000000001 -0.9001041666666667 -0.4001041666666667 -1.6757291666666667 -0.9334375 -2.3258333333333336 -1.6002083333333335 -0.6501041666666667 -0.6834375 -1.150104166666667 -1.4502083333333335 -1.5002083333333334 -2.3003125 -0.34947916666666673 -0.8501041666666668 -0.525 -1.7252083333333335 -0.525 -2.6254166666666667 0 -0.9167708333333334 0.18333333333333335 -1.8002083333333334 0.55 -2.6503125 0.3501041666666667 -0.8114583333333334 0.8372916666666667 -1.531875 1.4607291666666669 -2.161041666666667l0.09000000000000001 -0.08927083333333334c0.6667708333333334 -0.6667708333333334 1.4496875 -1.1918750000000002 2.3497916666666665 -1.5752083333333335 0.9001041666666667 -0.3834375 1.8836458333333335 -0.5751041666666667 2.9504166666666665 -0.5751041666666667Zm-60.327302083333336 0.075 6.075843750000001 13.976875000000001h-3.200416666666667l-1.4002083333333335 -3.275416666666667H5.66728125l-1.4001875 3.275416666666667H1.0416666666666667l6.1008125 -13.976875000000001h2.475322916666667Zm17.896677083333337 0 3.8505208333333334 4.950729166666667 3.8505208333333334 -4.950729166666667h3.275416666666667l-5.525729166666667 7.076041666666668 5.350729166666667 6.900833333333334h-3.275416666666667l-3.675520833333334 -4.750625 -3.650416666666667 4.750625h-3.3255208333333335l5.375729166666668 -6.900833333333334 -5.550729166666668 -7.076041666666668h3.300416666666667Zm24.418020833333333 -0.06395833333333334v9.352708333333334h2.4266666666666667l-3.6781250000000005 3.018541666666667v-11.5l1.2514583333333333 -0.8712500000000001Zm17.963124999999998 2.689375c-0.9167708333333334 0 -1.7007291666666668 0.21666666666666667 -2.3508333333333336 0.65 -0.6334375 0.43343750000000003 -1.116875 0.9835416666666668 -1.4502083333333335 1.6503125 -0.33333333333333337 0.6667708333333334 -0.5001041666666667 1.3585416666666668 -0.5001041666666667 2.0752083333333333 0 0.7501041666666667 0.175625 1.466875 0.5256250000000001 2.1503125 0.34958333333333336 0.6667708333333334 0.84125 1.2085416666666666 1.4746875000000002 1.6252083333333336 0.6501041666666667 0.41677083333333337 1.4252083333333334 0.6251041666666667 2.3253125 0.6251041666666667 0.9167708333333334 0 1.6918750000000002 -0.21666666666666667 2.3253125 -0.6501041666666667 0.6339583333333334 -0.45 1.1167708333333335 -1.0084375 1.4502083333333335 -1.6752083333333336 0.33333333333333337 -0.6834375 0.5005208333333333 -1.383541666666667 0.5005208333333333 -2.1003125000000002 0 -0.7501041666666667 -0.17500000000000002 -1.4585416666666666 -0.525 -2.1253124999999997 -0.3501041666666667 -0.6666666666666667 -0.8501041666666668 -1.2001041666666667 -1.500729166666667 -1.6002083333333335 -0.6334375 -0.41666666666666674 -1.391354166666667 -0.625 -2.274791666666667 -0.625ZM8.392645833333335 46.63947916666667l-2.0502708333333333 4.400625h4.02553125l-1.9752604166666667 -4.400625Z" stroke-width="1"></path></svg>