<svg xmlns="http://www.w3.org/2000/svg" fill="none" viewBox="0 0 100 100" id="Bootstrap--Streamline-Svg-Logos.svg" height="100" width="100"><desc>Bootstrap Streamline Icon: https://streamlinehq.com</desc><path fill="#7E13F8" d="M21.379270833333337 10.9990625c-5.587083333333334 0 -9.721145833333335 4.890000000000001 -9.536041666666668 10.193229166666669 0.17750000000000002 5.095000000000001 -0.053125 11.693645833333333 -1.7143958333333336 17.074895833333333C8.462593750000002 43.66416666666667 5.644583333333334 47.083020833333336 1.0416666666666667 47.52197916666667v4.955520833333334c4.602916666666667 0.43895833333333334 7.420927083333334 3.8578125 9.087166666666667 9.254791666666668 1.6612708333333333 5.381354166666667 1.8918958333333333 11.979895833333334 1.7143958333333336 17.074895833333333 -0.18510416666666668 5.302395833333334 3.9489583333333336 10.193229166666669 9.536875 10.193229166666669h57.248125c5.5869791666666675 0 9.720208333333334 -4.890000000000001 9.535208333333335 -10.193229166666669 -0.1776041666666667 -5.095000000000001 0.053125 -11.693541666666667 1.714375 -17.074895833333333 1.6670833333333335 -5.396979166666667 4.477604166666667 -8.815833333333334 9.080520833333333 -9.254791666666668v-4.955520833333334c-4.602916666666667 -0.43895833333333334 -7.413437500000001 -3.8578125 -9.080520833333333 -9.254791666666668 -1.6612500000000001 -5.380416666666666 -1.8919791666666668 -11.979895833333334 -1.714375 -17.074895833333333 0.18500000000000003 -5.302395833333334 -3.9482291666666667 -10.193229166666669 -9.535208333333335 -10.193229166666669H21.3784375h0.0008333333333333334Zm46.04656250000001 48.01479166666667c0 7.302291666666667 -5.446770833333334 11.7309375 -14.485833333333334 11.7309375H37.552916666666675c-0.9165625000000001 0 -1.6595833333333334 -0.7430208333333335 -1.6595833333333334 -1.6595833333333334V30.914270833333337c0 -0.9165625000000001 0.7430208333333335 -1.6595833333333334 1.6595833333333334 -1.6595833333333334h15.2990625c7.5371875 0 12.483645833333334 4.082604166666667 12.483645833333334 10.3509375 0 4.399687500000001 -3.327604166666667 8.338750000000001 -7.566979166666668 9.028229166666668v0.22989583333333335c5.77125 0.633125 9.6571875 4.629479166666667 9.6571875 10.150104166666667ZM51.26208333333334 34.515625h-8.7734375v12.392291666666667h7.389375c5.712395833333334 0 8.862291666666668 -2.300208333333334 8.862291666666668 -6.411875000000001 0 -3.8528125 -2.7084375 -5.980416666666668 -7.478229166666667 -5.980416666666668Zm-8.7734375 17.309687500000003v13.656875000000001h9.096250000000001c5.9471875 0 9.098020833333333 -2.3864583333333336 9.098020833333333 -6.8715625000000005 0 -4.4859375 -3.23875 -6.786145833333334 -9.480520833333335 -6.786145833333334h-8.713750000000001v0.0008333333333333334Z" stroke-width="1"></path></svg>