<svg xmlns="http://www.w3.org/2000/svg" fill="none" viewBox="0 0 100 100" id="Git-Icon--Streamline-Svg-Logos.svg" height="100" width="100"><desc>Git Icon Streamline Icon: https://streamlinehq.com</desc><path fill="#DE4C36" d="M97.11145833333335 45.63812500000001 54.35958333333334 2.8894375c-2.4602083333333336 -2.4624239583333334 -6.453645833333334 -2.4624239583333334 -8.9171875 0l-8.877395833333333 8.877437500000001 11.261458333333334 11.261354166666667c2.6170833333333334 -0.8841666666666668 5.6178125 -0.2911458333333334 7.7041666666666675 1.7953125 2.096145833333334 2.099270833333333 2.6848958333333335 5.125729166666667 1.7791666666666668 7.751458333333334l10.853125000000002 10.853125000000002c2.625729166666667 -0.9045833333333333 5.6554166666666665 -0.3190625 7.752604166666667 1.7813541666666668 2.9308333333333336 2.929791666666667 2.9308333333333336 7.6784375 0 10.610312500000001 -2.9319791666666672 2.9319791666666672 -7.680625000000001 2.9319791666666672 -10.613541666666668 0 -2.2045833333333333 -2.2066666666666666 -2.7492708333333336 -5.444791666666667 -1.6330208333333336 -8.160833333333333l-10.1215625 -10.121458333333333 -0.0010416666666666669 26.635416666666668c0.714375 0.35458333333333336 1.3890625 0.82625 1.9842708333333334 1.4192708333333335 2.9308333333333336 2.929791666666667 2.9308333333333336 7.6784375 0 10.6125 -2.9318750000000002 2.9308333333333336 -7.682708333333334 2.9308333333333336 -10.610312500000001 0 -2.9308333333333336 -2.9340625 -2.9308333333333336 -7.682708333333334 0 -10.6125 0.7240625 -0.7230208333333334 1.5620833333333335 -1.2698958333333334 2.4559375 -1.6373958333333336V37.07114583333333c-0.8938541666666667 -0.36520833333333336 -1.7307291666666669 -0.9088541666666667 -2.4559375 -1.6372916666666668 -2.2207291666666666 -2.2175000000000002 -2.7546875 -5.475937500000001 -1.616875 -8.202708333333334L32.203125 16.12875 2.889291666666667 45.44041666666667c-2.4635000000000002 2.4645833333333336 -2.4635000000000002 6.458020833333334 0 8.920416666666666L45.64114583333334 97.11062500000001c2.4613541666666667 2.462395833333334 6.45375 2.462395833333334 8.918333333333335 0l42.55197916666667 -42.55104166666666c2.4625 -2.463541666666667 2.4625 -6.459062500000001 0 -8.921458333333334Z" stroke-width="1"></path></svg>