<svg xmlns="http://www.w3.org/2000/svg" fill="none" viewBox="0 0 100 100" id="Html-5--Streamline-Svg-Logos.svg" height="100" width="100"><desc>Html 5 Streamline Icon: https://streamlinehq.com</desc><path fill="#E44D26" d="m84.68520833333334 20.284583333333334 -6.319791666666667 70.798125L49.9575 98.95833333333334l-28.329583333333336 -7.864583333333334 -6.313229166666667 -70.80916666666667h69.37052083333333Z" stroke-width="1"></path><path fill="#F16529" d="m49.99895833333334 92.93854166666668 22.955000000000002 -6.363958333333334 5.400729166666667 -60.50031250000001H49.99895833333334V92.93854166666668Z" stroke-width="1"></path><path fill="#EBEBEB" d="M37.714687500000004 43.443333333333335h12.285520833333335v-8.684479166666668H28.223645833333336l0.2079166666666667 2.3298958333333335 2.134479166666667 23.931979166666668h19.43416666666667v-8.684375000000001H38.50833333333334l-0.7936458333333334 -8.893020833333335Z" stroke-width="1"></path><path fill="#EBEBEB" d="M39.67083333333334 65.36312500000001h-8.717916666666667l1.2167708333333334 13.635833333333336 17.789479166666666 4.938541666666667 0.03989583333333334 -0.011145833333333334v-9.035520833333333l-0.03802083333333334 0.010208333333333333 -9.671979166666667 -2.611666666666667 -0.6182291666666667 -6.926250000000001Z" stroke-width="1"></path><path fill="#000" d="M21.769166666666667 1.0416666666666667h4.413333333333333v4.360354166666667h4.037187500000001V1.0416666666666667h4.413541666666667v13.204166666666667h-4.413333333333333V9.824333333333334h-4.037187500000001V14.245833333333335h-4.413333333333333L21.769166666666667 1.0416666666666667Z" stroke-width="1"></path><path fill="#000" d="M40.4371875 5.420375000000001h-3.8853125000000004V1.0416666666666667h12.186041666666668v4.378708333333334h-3.886979166666667V14.245833333333335h-4.413541666666667l-0.00020833333333333335 -8.825458333333335Z" stroke-width="1"></path><path fill="#000" d="M50.671354166666674 1.0416666666666667h4.601875l2.8308333333333335 4.6395625L60.93197916666667 1.0416666666666667h4.603645833333334v13.204166666666667h-4.395208333333334V7.701145833333333l-3.036354166666667 4.694791666666666h-0.07593750000000002l-3.0384375 -4.694791666666666v6.5446875h-4.318333333333333V1.0416666666666667Z" stroke-width="1"></path><path fill="#000" d="M67.73270833333333 1.0416666666666667h4.4146875v8.83965625h6.206458333333334V14.245833333333335H67.73270833333333V1.0416666666666667Z" stroke-width="1"></path><path fill="#fff" d="M49.97052083333333 61.020833333333336h10.693958333333333l-1.0080208333333334 11.263020833333334 -9.685937500000001 2.614375v9.035104166666667l17.803645833333334 -4.934270833333334 0.13062500000000002 -1.4672916666666669 2.040729166666667 -22.863333333333333 0.211875 -2.331979166666667H49.97052083333333v8.684375000000001Z" stroke-width="1"></path><path fill="#fff" d="M49.97052083333333 43.4221875v0.021145833333333332h20.977083333333336l0.17427083333333335 -1.9519791666666666 0.39562500000000006 -4.402604166666666 0.20770833333333333 -2.3298958333333335H49.97052083333333v8.663333333333334Z" stroke-width="1"></path></svg>