<svg xmlns="http://www.w3.org/2000/svg" fill="none" viewBox="0 0 100 100" id="Jquery--Streamline-Svg-Logos.svg" height="100" width="100"><desc>Jquery Streamline Icon: https://streamlinehq.com</desc><path fill="#1A1918" fill-rule="evenodd" d="M94.84697916666667 40.518541666666664 98.95833333333334 40.54114583333334s-7.643854166666667 10.3575 -8.267916666666666 11.201666666666668c-0.20270833333333335 0.2733333333333334 -0.5107291666666667 0.5682291666666667 -0.6667708333333334 0.9335416666666667 -0.3947916666666667 0.9187500000000001 -0.8001041666666667 2.933854166666667 -0.8001041666666667 2.933854166666667l-3.7617708333333337 0.018645833333333334s0.5853125 -2.100416666666667 0.56125 -3.2191666666666667c-0.02135416666666667 -0.9775 -0.5202083333333334 -1.9535416666666667 -0.8001041666666667 -2.933854166666667 -0.2828125 -0.9920833333333334 -0.666875 -2.93375 -0.666875 -2.93375h3.8673958333333336l0.5333333333333334 2.1336458333333335 5.890208333333334 -8.157187500000001Z" clip-rule="evenodd" stroke-width="1"></path><path fill="#1A1918" fill-rule="evenodd" d="M87.06166666666667 42.70302083333334c0.7586458333333334 0.45739583333333333 1.2242708333333334 2.980416666666667 1.2242708333333334 2.980416666666667s-3.97 0.05854166666666667 -6.130416666666667 0.05854166666666667H80.28854166666667l-2.2669791666666668 9.868333333333334h-3.4670833333333335s2.1576041666666668 -10.724270833333334 2.6669791666666667 -12.668645833333333c0.16531250000000003 -0.6292708333333333 1.1308333333333334 -0.5214583333333335 2.7617708333333337 -0.5214583333333335h2.604375c1.6816666666666669 0 3.647291666666667 -0.21458333333333335 4.4740625 0.2828125Z" clip-rule="evenodd" stroke-width="1"></path><path fill="#1A1918" fill-rule="evenodd" d="M70.92125 47.50895833333334s0.10802083333333334 -0.6334375 -0.3667708333333334 -1.3669791666666669c-0.4053125 -0.6253124999999999 -0.7798958333333335 -0.7707291666666667 -1.8467708333333335 -0.8039583333333334 -3.0125 -0.09479166666666668 -2.9539583333333335 2.1376041666666667 -2.9539583333333335 2.1376041666666667l5.1675 0.03333333333333334Zm3.2671875 -2.556354166666667c0.4414583333333334 1.5922916666666667 -0.4001041666666667 5.334062500000001 -0.4001041666666667 5.334062500000001s-4.3940625 -0.0734375 -6.800937500000001 0c-0.7483333333333334 0.0228125 -1.6442708333333336 -0.08135416666666667 -1.8669791666666669 0.26677083333333335 -0.31343750000000004 0.4880208333333334 0.11447916666666667 1.2389583333333334 0.47729166666666667 1.5561458333333333 0.41750000000000004 0.36541666666666667 1.2308333333333334 0.40677083333333336 1.5230208333333335 0.4440625 1.9535416666666667 0.248125 6.042291666666667 0.06406250000000001 6.042291666666667 0.06406250000000001l-0.7082291666666667 3.136354166666667s-5.778020833333334 0.2894791666666667 -8.667916666666667 -0.4001041666666667c-0.5706249999999999 -0.13583333333333333 -1.1055208333333333 -0.4105208333333334 -1.466979166666667 -0.8 -0.09864583333333335 -0.1065625 -0.18406250000000002 -0.2519791666666667 -0.27739583333333334 -0.3772916666666667 -0.07458333333333333 -0.10020833333333333 -0.29187500000000005 -0.4294791666666667 -0.389375 -0.6895833333333334 -0.6600000000000001 -1.7589583333333336 0.07739583333333334 -5.128750000000001 0.8001041666666667 -6.9342708333333345 0.08395833333333334 -0.20937500000000003 0.18937500000000002 -0.47458333333333336 0.30031250000000004 -0.7001041666666667 0.13854166666666667 -0.28125000000000006 0.25583333333333336 -0.5986458333333333 0.3664583333333334 -0.7667708333333334 0.07458333333333333 -0.11604166666666667 0.16687500000000002 -0.1907291666666667 0.24416666666666667 -0.3001041666666667 0.08927083333333334 -0.12937500000000002 0.19322916666666667 -0.2546875 0.289375 -0.3665625 0.26656250000000004 -0.30947916666666664 0.5692708333333334 -0.5282291666666667 0.9334375 -0.8001041666666667 1.2040625 -0.9015625000000002 3.383125 -1.6016666666666668 6.0008333333333335 -1.3335416666666668 0.9855208333333335 0.10125 2.4738541666666665 0.4532291666666667 3.2005208333333335 1.466875 0.1946875 0.2707291666666667 0.2907291666666667 0.8080208333333333 0.4001041666666667 1.2001041666666667Z" clip-rule="evenodd" stroke-width="1"></path><path fill="#1A1918" fill-rule="evenodd" d="m58.28593750000001 42.40822916666667 3.361875 -0.02s-1.8735416666666669 8.888020833333334 -2.8284375 13.222083333333334H54.952083333333334c-2.7030208333333334 0 -5.110104166666668 0.33468749999999997 -6.134166666666667 -1.6003125 -0.9934375000000001 -1.878854166666667 -0.04541666666666667 -4.96875 0.4 -7.0678125000000005 0.3147916666666667 -1.4855208333333334 0.9776041666666667 -4.5218750000000005 0.9776041666666667 -4.5218750000000005l3.4831250000000002 -0.03208333333333334s-0.9841666666666667 4.7273958333333335 -1.3936458333333335 7.0877083333333335c-0.1466666666666667 0.8455208333333334 -0.4491666666666667 1.6416666666666668 -0.1332291666666667 2.2669791666666668 0.3 0.5948958333333334 0.7200000000000001 0.6375000000000001 2.0002083333333336 0.666875 0.40552083333333333 0.009375 1.7336458333333333 0 1.7336458333333333 0l2.4003125 -10.0015625Z" clip-rule="evenodd" stroke-width="1"></path><path fill="#1A1918" fill-rule="evenodd" d="M42.54927083333333 48.80916666666667c0.3519791666666667 -1.2508333333333335 0.8654166666666667 -2.6070833333333336 0.8 -3.7339583333333337 -0.07052083333333334 -1.2054166666666668 -1.0813541666666668 -2.3029166666666665 -1.7334375 -2.533541666666667 -1.9642708333333334 -0.6935416666666666 -3.803125 0.27593750000000006 -4.5339583333333335 1.0666666666666669 -0.9456250000000002 1.0242708333333335 -1.2656250000000002 2.2205208333333335 -1.6004166666666668 3.8673958333333336 -0.24927083333333336 1.2227083333333333 -0.45333333333333337 2.513541666666667 0 3.4670833333333335 0.8027083333333334 1.6856250000000002 3.3058333333333336 1.3176041666666667 6.000937500000001 1.3336458333333334 0.4 -1.0721875000000003 0.7308333333333333 -2.2764583333333337 1.066875 -3.4672916666666667Zm4.667395833333333 -4.9340625000000005c0.38406250000000003 2.7923958333333334 -1.0894791666666668 5.874375000000001 -2.104375 8.554583333333335 1.0348958333333333 0.09333333333333334 1.9417708333333337 -0.014479166666666666 2.0070833333333336 0.06270833333333334 0.06791666666666667 0.10010416666666667 -0.6935416666666666 3.199166666666667 -0.9589583333333334 3.2070833333333337 -0.8214583333333334 0.021458333333333336 -3.5430208333333337 0.0440625 -4.678020833333334 0.0440625 -3.703229166666667 0 -7.1677083333333345 0.24135416666666668 -8.934479166666668 -1.6002083333333335 -0.7175 -0.748125 -1.2135416666666667 -2.031041666666667 -1.3336458333333334 -2.93375 -0.20010416666666667 -1.506979166666667 0.050625 -3.1659375 0.4 -4.5339583333333335 0.31614583333333335 -1.235 0.7214583333333334 -2.4005208333333337 1.3336458333333334 -3.4673958333333337 1.5561458333333333 -2.7163541666666666 4.263229166666667 -4.7325 8.80125 -4.2671875 0.8801041666666667 0.09072916666666667 2.1441666666666666 0.4761458333333334 2.93375 0.9334375 0.05458333333333334 0.0321875 0.24552083333333335 0.18406250000000002 0.289375 0.21083333333333334 1.066875 0.6788541666666666 2.0389583333333334 2.298958333333333 2.244375 3.789791666666667Z" clip-rule="evenodd" stroke-width="1"></path><path fill="#1A1918" fill-rule="evenodd" d="M30.83197916666667 42.42416666666667c-0.22395833333333334 1.0201041666666666 -0.44802083333333337 2.176354166666667 -0.6840625 3.184479166666667h-3.7339583333333337c0.289375 -1.1175000000000002 0.5107291666666667 -2.2283333333333335 0.8001041666666667 -3.2005208333333335 1.1948958333333335 0 2.3058333333333336 0.01604166666666667 3.617916666666667 0.01604166666666667Z" clip-rule="evenodd" stroke-width="1"></path><path fill="#1A1918" fill-rule="evenodd" d="M26.281250000000004 46.54197916666667h3.600416666666667c-0.470625 2.6058333333333334 -1.4027083333333334 6.8090625000000005 -2.133541666666667 9.734791666666666 -0.45739583333333333 1.8309375 -0.7628125 3.1671875000000003 -2.0004166666666667 4.133958333333333 -0.11062500000000001 0.08677083333333334 -0.17447916666666669 0.04552083333333334 -0.26656250000000004 0.13343750000000001 -0.22812500000000002 0.21739583333333334 -1.2829166666666667 0.46947916666666667 -1.866875 0.5333333333333334 -0.9495833333333333 0.1028125 -2.0230208333333333 0.013333333333333334 -3.1898958333333334 -0.010520833333333333 0.3054166666666667 -1.1162500000000002 0.6508333333333334 -2.456354166666667 0.9228125 -3.456666666666667 2.8443750000000003 0.34416666666666673 2.9165625000000004 -2.3442708333333337 3.4671875 -4.933958333333334 0.31875000000000003 -1.49625 1.2842708333333335 -5.534166666666668 1.466875 -6.134375Z" clip-rule="evenodd" stroke-width="1"></path><path fill="#21609B" fill-rule="evenodd" d="m17.879583333333336 53.34333333333334 -0.0771875 0.2c-1.3150000000000002 2.5603125 -3.6446875000000003 4.1312500000000005 -6.967708333333334 4.200520833333333 -1.5535416666666668 0.03197916666666667 -3.0338125000000002 -0.3664583333333334 -4.000697916666667 -0.8001041666666667 -2.0868333333333333 -0.9375000000000001 -3.8419479166666672 -2.67625 -4.800552083333334 -4.5339583333333335 -1.3750333333333336 -2.663020833333334 -1.62296875 -6.367604166666667 1.23609375 -9.134583333333333 0.04405208333333334 0 -0.3467708333333333 0.6 -0.30271875 0.6l-0.07868750000000001 0.25604166666666667C0.8278354166666667 50.58145833333334 7.175302083333333 56.1090625 13.345625 55.47687500000001c1.4829166666666667 -0.15187500000000004 3.3739583333333334 -0.9640625 4.5339583333333335 -2.133541666666667Z" clip-rule="evenodd" stroke-width="1"></path><path fill="#21609B" fill-rule="evenodd" d="M14.145520833333336 50.67604166666667c1.5523958333333334 0.010729166666666668 3.1738541666666666 -0.7147916666666667 4.133958333333333 -1.7334375 -0.8400000000000001 2.1323958333333333 -3.272291666666667 3.5030208333333333 -6.534166666666668 3.0670833333333336 -2.7310625 -0.36541666666666667 -5.33278125 -3.11375 -5.600854166666667 -5.867604166666667 -0.19597916666666668 -2.004166666666667 0.5026458333333333 -3.200416666666667 1.6536458333333333 -4.651250000000001 -0.4000416666666667 0.7588541666666667 -0.5495208333333333 1.3441666666666667 -0.5867916666666667 1.7173958333333335 -0.4373229166666667 4.335416666666667 3.463166666666667 7.445208333333334 6.934208333333333 7.467812500000001Z" clip-rule="evenodd" stroke-width="1"></path><path fill="#21609B" fill-rule="evenodd" d="M18.12375 45.29135416666667c-0.24135416666666668 0.5534375 -1.6309375000000002 1.5988541666666667 -2.244375 1.729479166666667 -2.4296875 0.5175000000000001 -3.985833333333334 -0.6345833333333334 -4.800833333333333 -1.945625 -0.12125000000000001 -0.1960416666666667 -0.34520833333333334 -0.7306250000000001 -0.38531250000000006 -0.8667708333333334 -0.31609375 -1.0747916666666668 -0.17072916666666668 -2.7003125 0.7721875 -3.541875 -0.2840625 0.8001041666666667 -0.3254166666666667 1.7295833333333335 -0.1759375 2.3336458333333336 0.09052083333333334 0.36541666666666667 0.3664583333333334 1.0030208333333335 0.6427083333333333 1.4041666666666668 0.5026041666666667 0.7308333333333333 0.8213541666666667 0.9084375 1.466875 1.2963541666666667 0.290625 0.1746875 0.6026041666666667 0.3147916666666667 0.7373958333333334 0.3534375 0.6119791666666667 0.17989583333333334 1.9041666666666668 0.6546875 3.9872916666666667 -0.7628125Z" clip-rule="evenodd" stroke-width="1"></path></svg>