<svg xmlns="http://www.w3.org/2000/svg" fill="none" viewBox="0 0 100 100" id="Mysql--Streamline-Svg-Logos.svg" height="100" width="100"><desc>Mysql Streamline Icon: https://streamlinehq.com</desc><path fill="#00758F" d="m30.169895833333335 60.70520833333334 2.975833333333333 9.655416666666667c0.6684375000000001 2.1921875 0.9472916666666668 3.7225 0.8358333333333334 4.594791666666667 1.6275000000000002 -4.358854166666667 2.7645833333333334 -9.1090625 3.4114583333333335 -14.250208333333333h3.5781250000000004c-1.5384375000000001 8.370000000000001 -3.5678125000000005 14.452395833333334 -6.086666666666668 18.246770833333333 -1.9625000000000001 2.923645833333334 -4.1125 4.3855208333333335 -6.45375 4.3855208333333335 -0.6240625 0 -1.3936458333333335 -0.18854166666666666 -2.306979166666667 -0.5630208333333333v-2.0177083333333337c0.44614583333333335 0.06552083333333333 0.9696875 0.10041666666666667 1.5717708333333333 0.10041666666666667 1.0921875 0 1.9723958333333333 -0.3026041666666667 2.6420833333333333 -0.9066666666666667 0.8019791666666668 -0.7361458333333334 1.2033333333333334 -1.5634375 1.2033333333333334 -2.4803125 0 -0.62625 -0.31302083333333336 -1.9112500000000001 -0.9362500000000001 -3.855104166666667L26.458333333333332 60.70520833333334h3.7115625000000003ZM7.395552083333334 54.770625l5.45059375 16.630000000000003h0.0334375l5.484062500000001 -16.630000000000003h4.480416666666667c0.9811458333333334 8.2471875 1.5604166666666668 15.793333333333335 1.7384375 22.632916666666667h-3.7775000000000003c-0.13291666666666666 -6.393854166666666 -0.5011458333333334 -12.406145833333335 -1.103125 -18.038020833333334h-0.033229166666666664l-5.752291666666667 18.038020833333334h-2.876458333333334L5.3224791666666675 59.36552083333334h-0.03367708333333334c-0.4242291666666667 5.40875 -0.691125 11.421041666666667 -0.8024270833333333 18.038020833333334H1.0416666666666667c0.2226041666666667 -8.047291666666666 0.7796979166666668 -15.591041666666667 1.67128125 -22.632916666666667h4.682604166666668Z" stroke-width="1"></path><path fill="#F29111" d="M68.45500000000001 54.4346875c5.8628125 0 8.794583333333334 3.7458333333333336 8.794583333333334 11.233541666666667 0 4.068958333333334 -0.8816666666666668 7.1423958333333335 -2.6433333333333335 9.218854166666667 -0.3176041666666667 0.3793750000000001 -0.6683333333333333 0.7070833333333333 -1.0378125 1.0108333333333335l4.1490625 2.0514583333333336 -0.0040625 -0.00020833333333333335 -1.473125 2.5438541666666667 -5.403125000000001 -3.152604166666667c-0.8957291666666667 0.2652083333333333 -1.881041666666667 0.39781250000000007 -2.9551041666666666 0.39781250000000007 -2.8786458333333336 0 -5.028958333333334 -0.8390625 -6.450833333333334 -2.514791666666667 -1.5605208333333334 -1.8539583333333336 -2.3402083333333334 -4.7725 -2.3402083333333334 -8.750833333333334 0 -4.0459375 0.8798958333333334 -7.107708333333334 2.6420833333333333 -9.186770833333334 1.6047916666666668 -1.9016666666666666 3.8460416666666672 -2.8511458333333333 6.721875000000001 -2.8511458333333333Zm-17.954062500000003 0.033125c2.0955208333333335 0 4.0010416666666675 0.5607291666666667 5.7171875000000005 1.678125l-0.8717708333333334 1.9423958333333335c-1.4684375 -0.6242708333333334 -2.9165625000000004 -0.9376041666666668 -4.344270833333333 -0.9376041666666668 -1.1584375000000002 0 -2.05125 0.2788541666666667 -2.673541666666667 0.8398958333333334 -0.6258333333333334 0.5561458333333335 -1.0128125000000001 1.2719791666666669 -1.0128125000000001 2.1442708333333336 0 1.3404166666666668 0.9551041666666668 2.5031250000000003 2.7184375000000003 3.485416666666667 0.47437500000000005 0.2579166666666667 1.0922916666666667 0.601875 1.7271875 0.9583333333333335l0.1315625 0.07395833333333333c0.021979166666666668 0.012291666666666668 0.043958333333333335 0.0246875 0.06583333333333334 0.03697916666666667l0.131875 0.07416666666666667c0.021979166666666668 0.012395833333333335 0.043958333333333335 0.02479166666666667 0.06583333333333334 0.037083333333333336l0.1315625 0.07416666666666667c1.3350000000000002 0.7526041666666667 2.591041666666667 1.4709375 2.591041666666667 1.4709375 1.7633333333333336 1.2516666666666667 2.6420833333333333 2.586041666666667 2.6420833333333333 4.7840625 0 1.9194791666666668 -0.7033333333333334 3.4952083333333337 -2.1054166666666667 4.728125 -1.4032291666666667 1.2273958333333332 -3.2883333333333336 1.8428125 -5.6490625 1.8428125 -2.207916666666667 0 -4.347708333333333 -0.7082291666666667 -6.420520833333335 -2.113229166666667l0.9696875 -1.9441666666666668c1.78375 0.8939583333333334 3.397916666666667 1.3404166666666668 4.8471875 1.3404166666666668 1.3594791666666668 0 2.423541666666667 -0.30333333333333334 3.1933333333333334 -0.9027083333333334 0.7680208333333334 -0.6036458333333334 1.2284375 -1.445625 1.2284375 -2.513541666666667 0 -1.3438541666666668 -0.9346875 -2.4925 -2.6496875 -3.4561458333333333 -0.4453125 -0.2451041666666667 -1.0157291666666668 -0.5650000000000001 -1.6055208333333333 -0.8984375000000001l-0.13135416666666666 -0.07427083333333334c-0.24125000000000002 -0.13645833333333335 -0.48447916666666674 -0.2744791666666667 -0.7223958333333333 -0.4097916666666667l-0.12927083333333333 -0.0734375c-1.1578125 -0.6586458333333334 -2.1589583333333335 -1.2340625000000003 -2.1589583333333335 -1.2340625000000003 -1.7144791666666668 -1.2539583333333335 -2.5739583333333336 -2.599375 -2.5739583333333336 -4.81625 0 -1.8334375 0.6409375 -3.3154166666666667 1.9212500000000001 -4.442916666666667 1.2832291666666666 -1.1296875000000002 2.93875 -1.6945833333333336 4.966041666666667 -1.6945833333333336Zm33.63885416666667 0.30270833333333336v19.84885416666667h7.121562500000001v2.7840625h-10.733333333333334V54.77052083333334h3.6117708333333334ZM95.21875 74.62802083333334v0.4704166666666667h-0.7832291666666668v2.3027083333333334h-0.5984375000000001v-2.3027083333333334h-0.8135416666666667v-0.4704166666666667H95.21875Zm1.4457291666666667 0 0.7516666666666667 1.8902083333333335 0.690625 -1.8902083333333335h0.8484375000000001v2.7731250000000003h-0.5640625V75.290625l-0.7861458333333334 2.1105208333333336h-0.40677083333333336l-0.7872916666666667 -2.1105208333333336h-0.030312500000000003v2.1105208333333336h-0.5337500000000001v-2.7731250000000003h0.8176041666666668ZM68.08604166666667 57.21812500000001c-3.4550000000000005 0 -5.183333333333334 2.851354166666667 -5.183333333333334 8.550416666666667 0 3.264479166666667 0.4580208333333333 5.6319791666666665 1.3722916666666667 7.107291666666668 0.8466666666666667 1.365625 2.1730208333333336 2.0468750000000004 3.9789583333333334 2.0468750000000004 3.4550000000000005 0 5.183333333333334 -2.8735416666666667 5.183333333333334 -8.618229166666667 0 -3.218854166666667 -0.4580208333333333 -5.565833333333334 -1.3711458333333335 -7.041770833333334 -0.8479166666666667 -1.3626041666666668 -2.1736458333333335 -2.0445833333333336 -3.980104166666667 -2.0445833333333336Z" stroke-width="1"></path><path fill="#00758F" d="M59.029375 18.064791666666665c1.1461458333333334 -2.81625 5.153645833333333 -0.6836458333333334 6.708958333333333 0.30031250000000004 0.38114583333333335 0.24593750000000003 0.818125 0.7660416666666667 1.2552083333333335 0.9582291666666668 0.6817708333333333 0.026875000000000003 1.3630208333333333 0.08 2.0459375 0.10864583333333334 1.2809375 0.3009375 2.480729166666667 0.5468750000000001 3.49 1.121875 4.691041666666667 2.7625 7.744583333333334 5.577604166666667 10.555104166666666 10.227291666666666 0.6002083333333335 0.9851041666666667 0.9003125000000001 2.0508333333333337 1.3909375 3.1166666666666667 0.680625 1.5886458333333333 1.4457291666666667 3.2561458333333335 2.2359375000000004 4.758541666666667 0.35375000000000006 0.7121875 0.6276041666666667 1.5041666666666667 1.1188541666666667 2.1055208333333337 0.19177083333333336 0.275 0.7365625 0.3560416666666667 1.0622916666666669 0.5204166666666666 0.9004166666666666 0.46604166666666674 1.9912500000000002 0.8197916666666668 2.837916666666667 1.366875 1.5815625000000002 0.9859375000000001 3.110625 2.1609375 4.500520833333334 3.3637500000000005 0.5180208333333334 0.4644791666666667 0.8711458333333334 1.1217708333333334 1.3646875 1.6129166666666668v0.24791666666666667c-0.438125 0.13437500000000002 -0.8746875000000001 0.27208333333333334 -1.3116666666666668 0.3822916666666667 -0.9545833333333333 0.2454166666666667 -1.8001041666666668 0.18989583333333335 -2.7260416666666667 0.43531250000000005 -0.5722916666666668 0.16583333333333336 -1.2826041666666668 0.3848958333333334 -1.8828125000000002 0.44041666666666673 0.026770833333333337 0.02697916666666667 0.05531250000000001 0.0559375 0.05531250000000001 0.0559375 0.353125 1.00875 2.2633333333333336 1.8292708333333334 3.1368750000000003 2.4325 1.0611458333333335 0.7657291666666667 2.0442708333333335 1.6946875000000001 2.8356250000000003 2.761041666666667 0.2732291666666667 0.27218749999999997 0.5465625000000001 0.5198958333333333 0.8187500000000001 0.7912500000000001 0.18989583333333335 0.275 0.24354166666666668 0.6306250000000001 0.43583333333333335 0.8760416666666667v0.08281250000000001c-0.21302083333333333 -0.07520833333333334 -0.36614583333333334 -0.21854166666666666 -0.5114583333333333 -0.3685416666666667l-0.08666666666666667 -0.0903125c-0.08645833333333335 -0.09020833333333333 -0.17395833333333335 -0.17833333333333334 -0.27364583333333337 -0.25125000000000003 -0.6019791666666667 -0.41125 -1.1997916666666666 -0.9031250000000001 -1.8017708333333335 -1.2854166666666667 -1.0350000000000001 -0.6565625 -2.2354166666666666 -1.0378125 -3.2983333333333333 -1.6968750000000001 -0.6007291666666666 -0.3828125 -1.1736458333333335 -0.8187500000000001 -1.7464583333333334 -1.2564583333333335 -0.5191666666666667 -0.38385416666666666 -1.0908333333333333 -1.1211458333333335 -1.4171875 -1.6680208333333333 -0.19229166666666667 -0.3020833333333333 -0.21854166666666666 -0.6572916666666667 -0.4382291666666667 -0.8757291666666668 0.039375 -0.3651041666666667 0.3738541666666667 -0.47375 0.71125 -0.5628125l0.0778125 -0.020416666666666666c0.11635416666666668 -0.030312500000000003 0.2303125 -0.060416666666666674 0.3297916666666667 -0.1003125 1.4178125000000001 -0.6020833333333333 3.1083333333333334 -0.8205208333333334 5.291250000000001 -0.7657291666666667 -0.08218750000000001 -0.5482291666666667 -1.4463541666666668 -1.2310416666666668 -1.8816666666666668 -1.5592708333333334 -0.8740625 -0.63 -1.7994791666666667 -1.2872916666666667 -2.7265625000000004 -1.8606250000000002 -0.4912500000000001 -0.30031250000000004 -1.3380208333333334 -0.5194791666666667 -1.8822916666666667 -0.7647916666666666 -0.7365625 -0.30104166666666665 -2.3734375000000005 -0.601875 -2.781354166666667 -1.1752083333333334 -0.6932291666666667 -0.90375 -1.1912500000000001 -1.9817708333333335 -1.6747916666666667 -3.0708333333333333l-0.13166666666666668 -0.2971875c-0.043854166666666666 -0.09906250000000001 -0.08770833333333333 -0.19812500000000002 -0.13166666666666668 -0.2969791666666667 -0.5716666666666667 -1.3113541666666666 -1.2814583333333334 -2.678541666666667 -1.8542708333333335 -4.02125 -0.29958333333333337 -0.655 -0.4370833333333333 -1.2298958333333334 -0.7652083333333334 -1.8580208333333335 -1.9900000000000002 -3.855104166666667 -4.9357291666666665 -7.0827083333333345 -8.507291666666667 -9.352708333333334 -1.1736458333333335 -0.7385416666666667 -2.482395833333334 -1.4220833333333334 -3.926979166666667 -1.8866666666666667 -0.8187500000000001 -0.24708333333333335 -1.8012500000000002 -0.11041666666666668 -2.6736458333333335 -0.30031250000000004h-0.5739583333333335c-0.4901041666666667 -0.1378125 -0.8991666666666667 -0.6572916666666667 -1.2814583333333334 -0.9313541666666667 -0.8443750000000001 -0.5731250000000001 -1.6898958333333336 -0.9582291666666668 -2.699791666666667 -1.3671875 -0.35375000000000006 -0.16416666666666666 -1.364166666666667 -0.5463541666666667 -1.7166666666666668 -0.2454166666666667 -0.21854166666666666 0.05489583333333333 -0.32927083333333335 0.13729166666666667 -0.3829166666666667 0.3564583333333334 -0.2172916666666667 0.3271875 -0.026250000000000002 0.8196875000000001 0.10895833333333334 1.12125 0.40968750000000004 0.8740625 0.9819791666666667 1.3934374999999999 1.5011458333333334 2.131979166666667 0.46208333333333335 0.655 1.0361458333333335 1.393541666666667 1.3636458333333334 2.1058333333333334 0.7067708333333333 1.5308333333333335 1.0360416666666667 3.226979166666667 1.6910416666666668 4.7578125 0.24302083333333335 0.5755208333333334 0.6269791666666668 1.2305208333333335 0.9807291666666668 1.75 0.29958333333333337 0.411875 0.8443750000000001 0.7098958333333334 1.0092708333333333 1.2316666666666667 0.32875000000000004 0.5468750000000001 -0.4917708333333334 2.351666666666667 -0.6817708333333333 2.9248958333333337 -0.7103125 2.2427083333333333 -0.5728125000000001 5.36 0.24531250000000002 7.304166666666667 0.014583333333333335 0.03395833333333333 0.02916666666666667 0.068125 0.043645833333333335 0.10250000000000001l0.043645833333333335 0.10375c0.2986458333333334 0.7119791666666667 0.6184375000000001 1.4786458333333334 1.4127083333333335 1.6778125000000002 0.05479166666666667 -0.05427083333333334 0 -0.025729166666666668 0.10833333333333334 -0.05427083333333334 0.19239583333333335 -1.504791666666667 0.24656250000000002 -2.953854166666667 0.7652083333333334 -4.131145833333334 0.2994791666666667 -0.7360416666666667 0.8979166666666667 -1.2564583333333335 1.3082291666666668 -1.8573958333333334 0.2732291666666667 0.16364583333333332 0.2732291666666667 0.6573958333333334 0.43645833333333334 0.9839583333333334 0.35489583333333335 0.8471875000000001 0.7359375 1.7761458333333335 1.1736458333333335 2.6258333333333335 0.8979166666666667 1.75 1.9084375000000002 3.4464583333333336 3.0534375 4.9771875 0.3834375 0.5465625000000001 0.9277083333333334 1.1485416666666668 1.4184375 1.6410416666666667 0.21854166666666666 0.19062500000000002 0.4632291666666667 0.30083333333333334 0.6276041666666667 0.5461458333333333h0.053541666666666675v0.08260416666666667c-0.818125 -0.3016666666666667 -1.3367708333333335 -1.1480208333333335 -1.9893750000000001 -1.6421875000000001 -1.2284375 -0.9288541666666668 -2.699791666666667 -2.323854166666667 -3.5465625000000003 -3.6623958333333335 -0.35427083333333337 -0.7683333333333334 -0.7371875 -1.504791666666667 -1.1188541666666667 -2.269375v-0.05531250000000001c-0.163125 0.2184375 -0.10833333333333334 0.43531250000000005 -0.18989583333333335 0.7657291666666667 -0.35437500000000005 1.3664583333333336 -0.08166666666666667 2.9253125000000004 -1.3088541666666667 3.4166666666666665 -1.3910416666666667 0.5757291666666666 -2.428854166666667 -0.9288541666666668 -2.8641666666666667 -1.6123958333333335 -1.3915625000000003 -2.269375 -1.7726041666666668 -6.097604166666667 -0.7913541666666668 -9.187916666666666 0.21791666666666668 -0.6841666666666668 0.24770833333333336 -1.5045833333333334 0.6282291666666667 -2.0508333333333337 -0.08218750000000001 -0.49375 -0.46270833333333333 -0.62875 -0.6830208333333333 -0.9313541666666667 -0.3816666666666667 -0.5170833333333333 -0.7085416666666667 -1.1194791666666668 -1.0075 -1.6938541666666669 -0.5739583333333335 -1.121875 -0.9825000000000002 -2.4621875 -1.4183333333333334 -3.6652083333333336 -0.19177083333333336 -0.4913541666666667 -0.24656250000000002 -0.9845833333333335 -0.43770833333333337 -1.4495833333333334 -0.3257291666666667 -0.7100000000000001 -0.9265625000000001 -1.4221875000000002 -1.3897916666666668 -2.0503125 -0.6276041666666667 -0.9027083333333334 -2.4551041666666666 -2.652083333333333 -1.7184375 -4.430625Zm8.944895833333334 5.357604166666667c0.0728125 0.07302083333333334 0.16083333333333336 0.13697916666666668 0.251875 0.19979166666666667l0.10979166666666666 0.07541666666666667c0.1463541666666667 0.10114583333333335 0.28791666666666665 0.20802083333333335 0.3748958333333334 0.35354166666666664 0.1375 0.1921875 0.16322916666666668 0.3820833333333334 0.328125 0.5748958333333333 0 0.6573958333333334 -0.19062500000000002 1.094375 -0.5752083333333334 1.366666666666667 0 0 -0.026145833333333337 0.028645833333333336 -0.053020833333333336 0.05552083333333334 -0.21791666666666668 -0.4382291666666667 -0.4090625 -0.8740625 -0.62875 -1.3117708333333336 -0.2704166666666667 -0.3820833333333334 -0.6527083333333334 -0.6853125000000001 -0.8729166666666667 -1.1217708333333334h-0.053020833333333336v-0.05489583333333333c0.32927083333333335 -0.08125 0.6555208333333333 -0.13739583333333333 1.1182291666666666 -0.13739583333333333Z" stroke-width="1"></path></svg>