<svg xmlns="http://www.w3.org/2000/svg" fill="none" viewBox="0 0 100 100" id="Nestjs--Streamline-Svg-Logos.svg" height="100" width="100"><desc>Nestjs Streamline Icon: https://streamlinehq.com</desc><path fill="#E0234E" d="M58.69614583333334 1.2336770833333335c-0.7080208333333333 0 -1.3655208333333333 0.15171875 -1.9723958333333333 0.35401041666666666 1.2895833333333333 0.8597604166666668 1.9977083333333334 1.9976979166666669 2.351666666666667 3.2873333333333337 0.02541666666666667 0.17701041666666667 0.07583333333333334 0.3034479166666667 0.10125 0.4804479166666667 0.0253125 0.1517291666666667 0.05052083333333334 0.3034479166666667 0.05052083333333334 0.4551770833333334 0.10114583333333335 2.225260416666667 -0.5816666666666667 2.503416666666667 -1.0620833333333335 3.818354166666667 -0.7333333333333334 1.694229166666667 -0.5310416666666667 3.5149583333333334 0.3539583333333334 4.981520833333334 0.07593750000000002 0.17708333333333337 0.17708333333333337 0.3793750000000001 0.30354166666666665 0.5563541666666667 -0.9609375 -6.397635416666667 4.3746875 -7.3585520833333335 5.360833333333334 -9.356229166666667 0.07583333333333334 -1.7448125 -1.3655208333333333 -2.9080208333333335 -2.5034375000000004 -3.7172083333333337 -1.0872916666666668 -0.65746875 -2.073541666666667 -0.8597604166666668 -2.983854166666667 -0.8597604166666668Zm8.04125 1.4413645833333335c-0.10114583333333335 0.5816041666666667 -0.0253125 0.429875 -0.05052083333333334 0.7333229166666667 -0.0253125 0.2022916666666667 -0.0253125 0.4551770833333334 -0.05052083333333334 0.65746875 -0.05052083333333334 0.2022916666666667 -0.10114583333333335 0.40459375000000003 -0.1769791666666667 0.6068958333333334 -0.05052083333333334 0.2022916666666667 -0.12645833333333334 0.40459375000000003 -0.2022916666666667 0.6068854166666666 -0.10125 0.20230208333333335 -0.17708333333333337 0.3793020833333334 -0.2782291666666667 0.5816041666666667 -0.07583333333333334 0.10118750000000001 -0.12635416666666668 0.2022916666666667 -0.2022916666666667 0.3034479166666667 -0.05052083333333334 0.07586458333333335 -0.10114583333333335 0.15171875 -0.15166666666666667 0.22758333333333336 -0.12645833333333334 0.17702083333333335 -0.2529166666666667 0.35402083333333334 -0.37927083333333333 0.5057395833333334 -0.15177083333333333 0.1517291666666667 -0.2782291666666667 0.32872916666666674 -0.4552083333333334 0.4551770833333334l0 0.0253125c-0.15177083333333333 0.1264375 -0.3034375 0.2781666666666667 -0.4804166666666667 0.40459375000000003 -0.5310416666666667 0.40459375000000003 -1.1380208333333335 0.7080416666666667 -1.6942708333333336 1.08734375 -0.1769791666666667 0.1264375 -0.3540625 0.22759375 -0.5057291666666667 0.37931250000000005 -0.17708333333333337 0.1264375 -0.32875000000000004 0.25286458333333334 -0.48052083333333334 0.40459375000000003 -0.1769791666666667 0.15171875 -0.3034375 0.3034479166666667 -0.4551041666666667 0.4804583333333334 -0.12645833333333334 0.1517291666666667 -0.2782291666666667 0.32876041666666667 -0.3793750000000001 0.5057395833333334 -0.12645833333333334 0.1769791666666667 -0.2528125 0.3540625 -0.3539583333333334 0.5310416666666667 -0.10125 0.2022916666666667 -0.17708333333333337 0.37927083333333333 -0.2782291666666667 0.5815625000000001 -0.07583333333333334 0.2022916666666667 -0.15166666666666667 0.3793750000000001 -0.2022916666666667 0.5816666666666667 -0.07583333333333334 0.22750000000000004 -0.12635416666666668 0.42989583333333337 -0.1769791666666667 0.6321875 -0.0253125 0.10114583333333335 -0.0253125 0.22750000000000004 -0.05052083333333334 0.32864583333333336 -0.0253125 0.10125 -0.02541666666666667 0.2022916666666667 -0.05052083333333334 0.30354166666666665 0 0.2022916666666667 -0.0253125 0.42979166666666674 -0.0253125 0.6320833333333333 0 0.15177083333333333 0 0.3034375 0.0253125 0.4552083333333334 0 0.2022916666666667 0.0253125 0.4045833333333334 0.07583333333333334 0.6321875 0.0253125 0.2022916666666667 0.07583333333333334 0.4045833333333334 0.12645833333333334 0.606875 0.07583333333333334 0.2022916666666667 0.12645833333333334 0.4045833333333334 0.2022916666666667 0.606875 0.05052083333333334 0.12645833333333334 0.12645833333333334 0.2529166666666667 0.1769791666666667 0.3540625l-5.816041666666667 -2.2506250000000003c-0.9861458333333334 -0.278125 -1.9470833333333335 -0.5309375000000001 -2.9333333333333336 -0.7585416666666667 -0.5309375000000001 -0.12645833333333334 -1.061979166666667 -0.2529166666666667 -1.5930208333333336 -0.3793750000000001 -1.5172916666666667 -0.3034375 -3.0597916666666665 -0.5309375000000001 -4.602291666666667 -0.6827083333333334 -0.05052083333333334 0 -0.07583333333333334 -0.0253125 -0.12645833333333334 -0.0253125 -1.5171875 -0.15166666666666667 -3.0091666666666668 -0.2276041666666667 -4.526354166666667 -0.2276041666666667 -1.1126041666666668 0 -2.2253125 0.05052083333333334 -3.312604166666667 0.12645833333333334 -1.5425 0.10114583333333335 -3.085 0.3034375 -4.627604166666667 0.5563541666666667 -0.37927083333333333 0.05052083333333334 -0.7585416666666667 0.12635416666666668 -1.1379166666666667 0.2022916666666667 -0.7838541666666666 0.15166666666666667 -1.5425 0.32875000000000004 -2.2758333333333334 0.5057291666666667 -0.37927083333333333 0.10114583333333335 -0.7585416666666667 0.2022916666666667 -1.1379166666666667 0.3034375 -0.37927083333333333 0.15166666666666667 -0.7333333333333334 0.32875000000000004 -1.0872916666666668 0.4804166666666667 -0.2782291666666667 0.12645833333333334 -0.5563541666666667 0.2529166666666667 -0.8344791666666668 0.3793750000000001 -0.05052083333333334 0.0253125 -0.10125 0.0253125 -0.12645833333333334 0.05052083333333334 -0.2529166666666667 0.12645833333333334 -0.4804166666666667 0.22750000000000004 -0.7080208333333333 0.3539583333333334 -0.07583333333333334 0.0253125 -0.12645833333333334 0.05052083333333334 -0.1769791666666667 0.07593750000000002 -0.2782291666666667 0.12635416666666668 -0.5563541666666667 0.278125 -0.7839583333333334 0.4045833333333334 -0.1769791666666667 0.07583333333333334 -0.3539583333333334 0.1769791666666667 -0.5057291666666667 0.2528125 -0.07583333333333334 0.05052083333333334 -0.1769791666666667 0.10125 -0.2276041666666667 0.12645833333333334 -0.2276041666666667 0.12645833333333334 -0.4551041666666667 0.2529166666666667 -0.6575000000000001 0.37927083333333333 -0.22750000000000004 0.12645833333333334 -0.42979166666666674 0.2529166666666667 -0.606875 0.3793750000000001 -0.1769791666666667 0.12645833333333334 -0.3539583333333334 0.2276041666666667 -0.5057291666666667 0.3539583333333334 -0.0253125 0.0253125 -0.05052083333333334 0.0253125 -0.07583333333333334 0.05052083333333334 -0.15177083333333333 0.10125 -0.32875000000000004 0.2276041666666667 -0.4804166666666667 0.3540625 0 0 -0.02541666666666667 0.0253125 -0.050625 0.05052083333333334 -0.12635416666666668 0.10125 -0.2528125 0.2022916666666667 -0.37927083333333333 0.3034375 -0.05052083333333334 0.0253125 -0.10114583333333335 0.07583333333333334 -0.15177083333333333 0.10125 -0.12635416666666668 0.10114583333333335 -0.2528125 0.22750000000000004 -0.37927083333333333 0.32875000000000004 -0.0253125 0.05052083333333334 -0.07583333333333334 0.07583333333333334 -0.10114583333333335 0.10114583333333335 -0.15177083333333333 0.15166666666666667 -0.3034375 0.278125 -0.4552083333333334 0.42989583333333337 -0.0253125 0 -0.0253125 0.0253125 -0.05052083333333334 0.05052083333333334 -0.15177083333333333 0.12645833333333334 -0.3034375 0.278125 -0.4552083333333334 0.42989583333333337 -0.0253125 0.0253125 -0.0253125 0.05052083333333334 -0.05052083333333334 0.05052083333333334 -0.12635416666666668 0.12645833333333334 -0.2528125 0.2529166666666667 -0.37927083333333333 0.4045833333333334 -0.05052083333333334 0.05052083333333334 -0.12645833333333334 0.10114583333333335 -0.1769791666666667 0.15166666666666667 -0.12645833333333334 0.15177083333333333 -0.2782291666666667 0.30354166666666665 -0.42989583333333337 0.4552083333333334 -0.0253125 0.05052083333333334 -0.07583333333333334 0.07583333333333334 -0.10125 0.12645833333333334 -0.2022916666666667 0.2022916666666667 -0.37927083333333333 0.4045833333333334 -0.5815625000000001 0.606875l-0.07583333333333334 0.07583333333333334c-0.4045833333333334 0.42989583333333337 -0.8344791666666668 0.8597916666666667 -1.2896875 1.2390625000000002 -0.4551041666666667 0.4045833333333334 -0.935625 0.7839583333333334 -1.4160416666666666 1.1127083333333334 -0.5057291666666667 0.3539583333333334 -0.9862500000000001 0.6573958333333334 -1.5172916666666667 0.9608333333333334 -0.5057291666666667 0.2782291666666667 -1.0367708333333334 0.5310416666666667 -1.5930208333333336 0.7586458333333334 -0.5310416666666667 0.2276041666666667 -1.0873958333333336 0.42989583333333337 -1.6436875 0.606875 -1.0620729166666667 0.2276041666666667 -2.1494166666666668 0.6575000000000001 -3.085041666666667 0.7333333333333334 -0.2022916666666667 0 -0.429875 0.05052083333333334 -0.6321666666666667 0.07583333333333334 -0.22759375 0.050625 -0.4298854166666667 0.10125 -0.6321770833333334 0.15177083333333333 -0.2022916666666667 0.07583333333333334 -0.4046041666666667 0.15177083333333333 -0.6068958333333334 0.2276041666666667 -0.20230208333333335 0.07583333333333334 -0.40459375000000003 0.1769791666666667 -0.6068854166666666 0.278125 -0.17702083333333335 0.12645833333333334 -0.37931250000000005 0.2276041666666667 -0.5563229166666668 0.3540625 -0.17701041666666667 0.12635416666666668 -0.35402083333333334 0.278125 -0.50575 0.42989583333333337 -0.177 0.12635416666666668 -0.35401041666666666 0.3034375 -0.5057395833333334 0.4551041666666667 -0.15171875 0.17708333333333337 -0.3034479166666667 0.32875000000000004 -0.429875 0.5057291666666667 -0.1264375 0.2022916666666667 -0.27815625 0.3793750000000001 -0.37931250000000005 0.5816666666666667 -0.1264375 0.1769791666666667 -0.25286458333333334 0.37927083333333333 -0.35402083333333334 0.5815625000000001 -0.10118750000000001 0.2276041666666667 -0.2022916666666667 0.42989583333333337 -0.27815625 0.6575000000000001 -0.07586458333333335 0.2022916666666667 -0.15171875 0.42989583333333337 -0.22758333333333336 0.6575000000000001 -0.05053125 0.2022916666666667 -0.10118750000000001 0.4045833333333334 -0.1264375 0.606875 0 0.0253125 -0.025322916666666667 0.05052083333333334 -0.025322916666666667 0.07583333333333334 -0.05053125 0.2276041666666667 -0.05053125 0.5310416666666667 -0.07586458333333335 0.6827083333333334 -0.025322916666666667 0.17708333333333337 -0.05053125 0.32875000000000004 -0.05053125 0.5058333333333334 0 0.10114583333333335 0 0.22750000000000004 0.025322916666666667 0.32864583333333336 0.025333333333333336 0.17708333333333337 0.05054166666666667 0.32875000000000004 0.10118750000000001 0.48052083333333334 0.05054166666666667 0.15166666666666667 0.10119791666666668 0.3034375 0.17701041666666667 0.4551041666666667l0 0.0253125c0.07585416666666667 0.15177083333333333 0.17701041666666667 0.30354166666666665 0.27815625 0.4552083333333334 0.10118750000000001 0.15177083333333333 0.20230208333333335 0.3034375 0.32873958333333336 0.4552083333333334 0.12642708333333336 0.12645833333333334 0.27815625 0.278125 0.429875 0.4045833333333334 0.1517291666666667 0.15166666666666667 0.3034479166666667 0.278125 0.4804583333333334 0.4045833333333334 0.6068854166666666 0.5310416666666667 0.7586145833333333 0.7080208333333333 1.5425104166666668 1.1126041666666668 0.1264375 0.07583333333333334 0.2528854166666667 0.12645833333333334 0.4046041666666667 0.2022916666666667 0.025333333333333336 0 0.05053125 0.0253125 0.07586458333333335 0.0253125 0 0.05052083333333334 0 0.07593750000000002 0.025322916666666667 0.12645833333333334 0.025333333333333336 0.2022916666666667 0.07586458333333335 0.4045833333333334 0.1264375 0.606875 0.05053125 0.2276041666666667 0.12644791666666666 0.42989583333333337 0.20230208333333335 0.606875 0.07586458333333335 0.15177083333333333 0.1264375 0.30354166666666665 0.20230208333333335 0.4552083333333334 0.025322916666666667 0.05052083333333334 0.05053125 0.10125 0.07585416666666667 0.12645833333333334 0.10119791666666668 0.2022916666666667 0.20230208333333335 0.37927083333333333 0.3034375 0.5563541666666667 0.12644791666666666 0.1769791666666667 0.252875 0.3539583333333334 0.37931250000000005 0.5309375000000001 0.1264375 0.15177083333333333 0.27815625 0.32875000000000004 0.4298854166666667 0.48052083333333334 0.15171875 0.15166666666666667 0.3034479166666667 0.278125 0.4804583333333334 0.42989583333333337 0 0 0.025333333333333336 0.0253125 0.05053125 0.0253125 0.1517291666666667 0.12645833333333334 0.3034479166666667 0.2529166666666667 0.4551770833333334 0.3540625 0.177 0.12635416666666668 0.35402083333333334 0.22750000000000004 0.5563125 0.32864583333333336 0.17701041666666667 0.10125 0.37931250000000005 0.2022916666666667 0.5816041666666667 0.2782291666666667 0.15171875 0.07583333333333334 0.32872916666666674 0.12645833333333334 0.5057395833333334 0.1769791666666667 0.025333333333333336 0.02541666666666667 0.05053125 0.02541666666666667 0.10118750000000001 0.05052083333333334 0.10118750000000001 0.02541666666666667 0.22757291666666668 0.05052083333333334 0.32872916666666674 0.07593750000000002 -0.07586458333333335 1.3654166666666667 -0.10118750000000001 2.655104166666667 0.10118750000000001 3.1103125 0.22757291666666668 0.5057291666666667 1.3401770833333335 -1.0367708333333334 2.4528854166666667 -2.8068750000000002 -0.15177083333333333 1.7447916666666667 -0.2529166666666667 3.7930208333333337 0 4.399895833333334 0.278125 0.6321875 1.7953125 -1.3402083333333334 3.1103125 -3.5148958333333336 17.928541666666668 -4.147083333333334 34.289375 8.243645833333334 36.00885416666667 25.742291666666667 -0.32875000000000004 -2.7310416666666666 -3.6919791666666666 -4.2482291666666665 -5.2344791666666675 -3.8689583333333335 -0.7585416666666667 1.87125 -2.0482291666666668 4.273541666666667 -4.121770833333334 5.765520833333334 0.1769791666666667 -1.6689583333333335 0.10114583333333335 -3.3885416666666672 -0.2528125 -5.0575 -0.5563541666666667 2.3264583333333335 -1.6437500000000003 4.501145833333334 -3.1356250000000006 6.372395833333334 -2.4022916666666667 0.1769791666666667 -4.804583333333333 -0.9861458333333334 -6.068958333333334 -2.7310416666666666 -0.10114583333333335 -0.07583333333333334 -0.12645833333333334 -0.22750000000000004 -0.2022916666666667 -0.32864583333333336 -0.07583333333333334 -0.17708333333333337 -0.15177083333333333 -0.3540625 -0.2022916666666667 -0.5310416666666667 -0.07583333333333334 -0.17708333333333337 -0.12645833333333334 -0.3540625 -0.15177083333333333 -0.5310416666666667 -0.0253125 -0.17708333333333337 -0.0253125 -0.3540625 -0.0253125 -0.5563541666666667l0 -0.37927083333333333c0.0253125 -0.1769791666666667 0.07583333333333334 -0.3540625 0.12645833333333334 -0.5310416666666667 0.05052083333333334 -0.1769791666666667 0.10114583333333335 -0.3540625 0.1769791666666667 -0.5310416666666667 0.10125 -0.1769791666666667 0.17708333333333337 -0.3540625 0.3034375 -0.5310416666666667 0.42989583333333337 -1.21375 0.42989583333333337 -2.2 -0.3539583333333334 -2.7815625 -0.15177083333333333 -0.10114583333333335 -0.3034375 -0.1769791666666667 -0.48052083333333334 -0.2529166666666667 -0.10114583333333335 -0.0253125 -0.22750000000000004 -0.07583333333333334 -0.32864583333333336 -0.10114583333333335 -0.07593750000000002 -0.0253125 -0.12645833333333334 -0.05052083333333334 -0.2022916666666667 -0.07583333333333334 -0.17708333333333337 -0.05052083333333334 -0.3540625 -0.10125 -0.5310416666666667 -0.12645833333333334 -0.17708333333333337 -0.05052083333333334 -0.3540625 -0.07583333333333334 -0.5310416666666667 -0.07583333333333334 -0.17708333333333337 -0.02541666666666667 -0.3793750000000001 -0.05052083333333334 -0.5563541666666667 -0.05052083333333334 -0.12645833333333334 0 -0.2528125 0.0253125 -0.37927083333333333 0.0253125 -0.2022916666666667 0 -0.3793750000000001 0.0253125 -0.5563541666666667 0.07583333333333334 -0.1769791666666667 0.0253125 -0.3539583333333334 0.05052083333333334 -0.5310416666666667 0.10114583333333335 -0.1769791666666667 0.05052083333333334 -0.3539583333333334 0.10125 -0.5310416666666667 0.17708333333333337 -0.1769791666666667 0.07583333333333334 -0.32864583333333336 0.15166666666666667 -0.5057291666666667 0.22750000000000004 -0.15166666666666667 0.07593750000000002 -0.3034375 0.17708333333333337 -0.4804166666666667 0.2529166666666667 -5.891875000000001 3.843645833333334 -2.3769791666666666 12.845833333333335 1.6436458333333335 15.450416666666667 -1.5171875 0.278125 -3.0596875000000003 0.606875 -3.4895833333333335 0.935625l-0.05052083333333334 0.05052083333333334c1.0872916666666668 0.6575000000000001 2.2252083333333337 1.2138541666666667 3.4137500000000003 1.6942708333333336 1.6183333333333336 0.5310416666666667 3.3378125 1.0114583333333333 4.0964583333333335 1.21375v0.0253125c2.098854166666667 0.42989583333333337 4.223020833333334 0.5816666666666667 6.372395833333334 0.4552083333333334 11.2021875 -0.7838541666666666 20.381458333333335 -9.305625000000001 22.0503125 -20.533125000000002 0.050625 0.2276041666666667 0.10125 0.42989583333333337 0.15177083333333333 0.6573958333333334 0.07583333333333334 0.4552083333333334 0.1769791666666667 0.935625 0.2276041666666667 1.4161458333333334l0 0.0253125c0.05052083333333334 0.2276041666666667 0.07583333333333334 0.4552083333333334 0.10114583333333335 0.6575000000000001l0 0.10114583333333335c0.02541666666666667 0.2276041666666667 0.05052083333333334 0.4552083333333334 0.05052083333333334 0.6575000000000001 0.0253125 0.278125 0.05052083333333334 0.55625 0.05052083333333334 0.8344791666666668l0 0.4045833333333334c0 0.12645833333333334 0.02541666666666667 0.278125 0.02541666666666667 0.4045833333333334 0 0.15177083333333333 -0.02541666666666667 0.3034375 -0.02541666666666667 0.4552083333333334l0 0.3539583333333334c0 0.17708333333333337 -0.0253125 0.32875000000000004 -0.0253125 0.5057291666666667 0 0.10125 0 0.2022916666666667 -0.0253125 0.32875000000000004 0 0.17708333333333337 -0.0253125 0.3540625 -0.0253125 0.5563541666666667 -0.0253125 0.07583333333333334 -0.02541666666666667 0.15166666666666667 -0.02541666666666667 0.2276041666666667 -0.0253125 0.2022916666666667 -0.05052083333333334 0.37927083333333333 -0.07583333333333334 0.5815625000000001 0 0.07583333333333334 0 0.15177083333333333 -0.0253125 0.2276041666666667 -0.0253125 0.2528125 -0.07583333333333334 0.4804166666666667 -0.10114583333333335 0.7333333333333334v0.050625c-0.05052083333333334 0.2276041666666667 -0.10125 0.48052083333333334 -0.15177083333333333 0.7080208333333333l0 0.07593750000000002c-0.05052083333333334 0.22750000000000004 -0.10114583333333335 0.4551041666666667 -0.15166666666666667 0.6827083333333334 0 0.0253125 -0.0253125 0.07583333333333334 -0.0253125 0.10114583333333335 -0.050625 0.2276041666666667 -0.10125 0.4552083333333334 -0.17708333333333337 0.6828125l0 0.07583333333333334c-0.07583333333333334 0.2529166666666667 -0.15166666666666667 0.48052083333333334 -0.2022916666666667 0.7080208333333333 -0.0253125 0.0253125 -0.0253125 0.050625 -0.0253125 0.050625 -0.07583333333333334 0.2528125 -0.15166666666666667 0.5057291666666667 -0.2276041666666667 0.7585416666666667 -0.10114583333333335 0.2529166666666667 -0.1769791666666667 0.48052083333333334 -0.278125 0.7333333333333334 -0.10114583333333335 0.2529166666666667 -0.1769791666666667 0.5057291666666667 -0.278125 0.7333333333333334 -0.10125 0.2529166666666667 -0.2022916666666667 0.48052083333333334 -0.3034375 0.7333333333333334h-0.02541666666666667c-0.10114583333333335 0.2276041666666667 -0.2022916666666667 0.4804166666666667 -0.32875000000000004 0.7080208333333333 -0.0253125 0.07583333333333334 -0.05052083333333334 0.12645833333333334 -0.07583333333333334 0.1769791666666667 -0.0253125 0.02541666666666667 -0.0253125 0.050625 -0.05052083333333334 0.07593750000000002 -1.6436458333333335 3.312604166666667 -4.07125 6.220625 -7.105729166666667 8.496458333333333 -0.2022916666666667 0.12645833333333334 -0.4045833333333334 0.278125 -0.606875 0.42989583333333337 -0.05052083333333334 0.05052083333333334 -0.12645833333333334 0.07583333333333334 -0.1769791666666667 0.12635416666666668 -0.1769791666666667 0.12645833333333334 -0.3540625 0.2529166666666667 -0.5563541666666667 0.3793750000000001l0.07593750000000002 0.15166666666666667h0.0253125c0.3539583333333334 -0.05052083333333334 0.7080208333333333 -0.10114583333333335 1.0620833333333335 -0.15166666666666667h0.0253125c0.6573958333333334 -0.10114583333333335 1.3148958333333334 -0.2276041666666667 1.9723958333333333 -0.3540625 0.1769791666666667 -0.0253125 0.37927083333333333 -0.07583333333333334 0.55625 -0.12645833333333334 0.12645833333333334 -0.0253125 0.2276041666666667 -0.05052083333333334 0.3540625 -0.07583333333333334 0.1769791666666667 -0.0253125 0.3539583333333334 -0.07583333333333334 0.5310416666666667 -0.10114583333333335 0.15166666666666667 -0.05052083333333334 0.3034375 -0.07593750000000002 0.4551041666666667 -0.12645833333333334 2.52875 -0.606875 4.981562500000001 -1.4413541666666667 7.333333333333334 -2.427604166666667 -4.020729166666667 5.487291666666668 -9.406875000000001 9.912604166666668 -15.703333333333335 12.820625000000001 2.9080208333333335 -0.2022916666666667 5.816041666666667 -0.6828125 8.622916666666669 -1.4919791666666666 10.190729166666667 -3.0091666666666668 18.763020833333336 -9.861979166666666 23.89635416666667 -19.091770833333335 -1.0367708333333334 5.841354166666667 -3.3632291666666667 11.404479166666667 -6.802291666666667 16.259687500000002 2.452916666666667 -1.6184375000000002 4.703437500000001 -3.4896875 6.751666666666668 -5.6137500000000005 5.664375000000001 -5.917187500000001 9.3815625 -13.4275 10.6459375 -21.494062500000002 0.8596875 3.9953125000000003 1.1126041666666668 8.117187500000002 0.7333333333333334 12.188333333333333 18.25697916666667 -25.4640625 1.5171875 -51.86385416666667 -5.487395833333334 -58.8178125 -0.0253125 -0.05052083333333334 -0.05052083333333334 -0.07583333333333334 -0.05052083333333334 -0.12645833333333334 -0.0253125 0.0253125 -0.0253125 0.0253125 -0.0253125 0.05052083333333334 0 -0.0253125 0 -0.0253125 -0.0253125 -0.05052083333333334 0 0.3034375 -0.0253125 0.606875 -0.05052083333333334 0.9103125000000001 -0.07593750000000002 0.5816666666666667 -0.15177083333333333 1.1379166666666667 -0.2529166666666667 1.6942708333333336 -0.12645833333333334 0.5563541666666667 -0.278125 1.1126041666666668 -0.42989583333333337 1.6689583333333335 -0.1769791666666667 0.5310416666666667 -0.37927083333333333 1.0872916666666668 -0.606875 1.6183333333333336 -0.2276041666666667 0.5057291666666667 -0.4804166666666667 1.0367708333333334 -0.7586458333333334 1.5425 -0.278125 0.48052083333333334 -0.5815625000000001 0.9862500000000001 -0.9103125000000001 1.4413541666666667 -0.32875000000000004 0.48052083333333334 -0.6827083333333334 0.935625 -1.0367708333333334 1.3655208333333333 -0.37927083333333333 0.4552083333333334 -0.7838541666666666 0.8597916666666667 -1.1884375 1.264375 -0.2529166666666667 0.2276041666666667 -0.48052083333333334 0.42989583333333337 -0.7333333333333334 0.6321875 -0.2022916666666667 0.1769791666666667 -0.3793750000000001 0.32875000000000004 -0.5816666666666667 0.5057291666666667 -0.4551041666666667 0.3540625 -0.9103125000000001 0.6828125 -1.4160416666666666 0.9862500000000001 -0.4804166666666667 0.3034375 -0.9861458333333334 0.606875 -1.4919791666666666 0.8596875 -0.5310416666666667 0.2529166666666667 -1.061979166666667 0.48052083333333334 -1.5930208333333336 0.708125 -0.5310416666666667 0.2022916666666667 -1.0873958333333336 0.37927083333333333 -1.6437500000000003 0.5310416666666667 -0.55625 0.15166666666666667 -1.1379166666666667 0.278125 -1.6941666666666668 0.37927083333333333 -0.5816666666666667 0.10114583333333335 -1.1632291666666668 0.15166666666666667 -1.7195833333333335 0.2022916666666667 -0.4045833333333334 0.0253125 -0.8091666666666668 0.05052083333333334 -1.21375 0.05052083333333334 -0.5815625000000001 0 -1.1632291666666668 -0.05052083333333334 -1.719479166666667 -0.10114583333333335 -0.5816666666666667 -0.05052083333333334 -1.1632291666666668 -0.12645833333333334 -1.7195833333333335 -0.2529166666666667 -0.5815625000000001 -0.10114583333333335 -1.1379166666666667 -0.2529166666666667 -1.6942708333333336 -0.42989583333333337h-0.0253125c0.5563541666666667 -0.05052083333333334 1.1127083333333334 -0.10114583333333335 1.6689583333333335 -0.2022916666666667 0.5816666666666667 -0.10114583333333335 1.1379166666666667 -0.2276041666666667 1.6942708333333336 -0.37927083333333333 0.5563541666666667 -0.15177083333333333 1.1126041666666668 -0.32875000000000004 1.6436458333333335 -0.5310416666666667 0.5563541666666667 -0.2022916666666667 1.0873958333333336 -0.4552083333333334 1.5931250000000001 -0.7080208333333333 0.5310416666666667 -0.2529166666666667 1.0114583333333333 -0.5310416666666667 1.5171875 -0.8344791666666668 0.48052083333333334 -0.32875000000000004 0.9609375 -0.6575000000000001 1.4161458333333334 -1.0115625000000001 0.4551041666666667 -0.3539583333333334 0.8850000000000001 -0.7332291666666667 1.2895833333333333 -1.1379166666666667 0.42989583333333337 -0.37927083333333333 0.8091666666666668 -0.8091666666666668 1.1885416666666668 -1.2390625000000002 0.37927083333333333 -0.4551041666666667 0.7333333333333334 -0.9103125000000001 1.0620833333333335 -1.3654166666666667 0.05052083333333334 -0.07593750000000002 0.10114583333333335 -0.17708333333333337 0.15166666666666667 -0.2529166666666667 0.2529166666666667 -0.4045833333333334 0.5057291666666667 -0.8091666666666668 0.7333333333333334 -1.21375 0.278125 -0.5057291666666667 0.5310416666666667 -1.0115625000000001 0.7586458333333334 -1.5425 0.22750000000000004 -0.5310416666666667 0.42989583333333337 -1.0620833333333335 0.606875 -1.6184375000000002 0.1769791666666667 -0.5310416666666667 0.3034375 -1.0872916666666668 0.42989583333333337 -1.6436458333333335 0.10114583333333335 -0.5815625000000001 0.2022916666666667 -1.1379166666666667 0.2528125 -1.6942708333333336 0.05052083333333334 -0.5815625000000001 0.10125 -1.1632291666666668 0.10125 -1.719479166666667 0 -0.4045833333333334 -0.02541666666666667 -0.8091666666666668 -0.05052083333333334 -1.21375 -0.050625 -0.5816666666666667 -0.12645833333333334 -1.1380208333333335 -0.20239583333333336 -1.6942708333333336 -0.10114583333333335 -0.5816666666666667 -0.22750000000000004 -1.1379166666666667 -0.37927083333333333 -1.6942708333333336 -0.1769791666666667 -0.5310416666666667 -0.3540625 -1.0872916666666668 -0.55625 -1.6183333333333336 -0.20239583333333336 -0.5310416666666667 -0.4552083333333334 -1.0620833333333335 -0.708125 -1.5678125000000003 -0.278125 -0.5057291666666667 -0.55625 -1.0115 -0.8596875 -1.4919479166666667 -0.32875000000000004 -0.4804479166666667 -0.6575000000000001 -0.935625 -1.0115625000000001 -1.3907916666666666 -0.37927083333333333 -0.4298854166666667 -0.7585416666666667 -0.8597604166666668 -1.1632291666666668 -1.2896458333333334 -0.2022916666666667 -0.2022916666666667 -0.42979166666666674 -0.429875 -0.6573958333333334 -0.6321666666666667 -1.1379166666666667 -0.8850625000000001 -2.3264583333333335 -1.7195416666666667 -3.5148958333333336 -2.4781458333333335 -0.17708333333333337 -0.10118750000000001 -0.32875000000000004 -0.17701041666666667 -0.5057291666666667 -0.2528854166666667 -0.8344791666666668 -0.5310208333333334 -1.6184375000000002 -0.8093229166666668 -2.4023958333333333 -1.0621875Z" stroke-width="1"></path></svg>