<svg xmlns="http://www.w3.org/2000/svg" fill="none" viewBox="0 0 100 100" id="Nuxt-Icon--Streamline-Svg-Logos.svg" height="100" width="100"><desc>Nuxt Icon Streamline Icon: https://streamlinehq.com</desc><path fill="#00DC82" d="M55.97375 81.94312500000001h36.3996875c1.1562500000000002 0 2.2919791666666667 -0.29489583333333336 3.2931250000000003 -0.8557291666666668 1.0012500000000002 -0.5608333333333334 1.8326041666666668 -1.3672916666666668 2.410416666666667 -2.3386458333333335 0.5777083333333334 -0.9712500000000001 0.8813541666666667 -2.0730208333333335 0.8813541666666667 -3.194479166666667s-0.3054166666666667 -2.222916666666667 -0.8842708333333333 -3.193854166666667L73.62916666666666 31.290625000000002c-0.5778125000000001 -0.9710416666666668 -1.4090625 -1.7775 -2.4101041666666667 -2.3381250000000002 -1.0010416666666666 -0.5607291666666667 -2.1365625 -0.8558333333333334 -3.2923958333333334 -0.8558333333333334 -1.1559375 0 -2.2915625 0.29510416666666667 -3.2925000000000004 0.8558333333333334 -1.0010416666666666 0.560625 -1.8321875 1.3670833333333334 -2.41 2.3381250000000002l-6.250416666666667 10.508333333333333 -12.220833333333333 -20.548645833333335c-0.5781250000000001 -0.9710416666666668 -1.4096875 -1.7772916666666667 -2.4109374999999997 -2.337916666666667 -1.0013541666666668 -0.5605208333333334 -2.1371875 -0.8556250000000001 -3.2931250000000003 -0.8556250000000001 -1.1560416666666666 0 -2.2917708333333335 0.29510416666666667 -3.2932291666666673 0.8556250000000001 -1.0012500000000002 0.560625 -1.8327083333333336 1.366875 -2.4109374999999997 2.337916666666667L1.9258020833333336 72.36041666666667C1.3471041666666668 73.33135416666667 1.0416666666666667 74.43281250000001 1.0416666666666667 75.55427083333333s0.3034375 2.223229166666667 0.8812604166666668 3.194479166666667c0.5778229166666667 0.9713541666666667 1.40915625 1.7778125000000002 2.410354166666667 2.3386458333333335 1.00121875 0.5608333333333334 2.1370208333333336 0.8557291666666668 3.2931666666666666 0.8557291666666668H30.475104166666668c9.053020833333333 0 15.729166666666668 -3.8570833333333336 20.323020833333334 -11.3821875L61.95104166666667 51.825625l5.97375 -10.026666666666667L85.85343750000001 71.91666666666667H61.95104166666667l-5.977291666666667 10.026458333333334Zm-25.871145833333337 -10.036770833333335 -15.945416666666668 -0.003541666666666667L38.059375 31.748333333333335l11.926458333333334 20.077291666666667 -7.9853125 13.419270833333334c-3.050625 4.8825 -6.5164583333333335 6.661458333333333 -11.897916666666669 6.661458333333333Z" stroke-width="1"></path></svg>