<svg xmlns="http://www.w3.org/2000/svg" fill="none" viewBox="0 0 100 100" id="Php-Alt--Streamline-Svg-Logos.svg" height="100" width="100"><desc>Php Alt Streamline Icon: https://streamlinehq.com</desc><path fill="#000" d="M23.311562500000004 35.749583333333334c4.2621875000000005 0.035729166666666666 7.350729166666667 1.2645833333333334 9.265520833333333 3.684479166666667 1.9148958333333335 2.42 2.5467708333333334 5.725208333333334 1.8964583333333334 9.915833333333333 -0.2525 1.9148958333333335 -0.8127083333333334 3.7929166666666667 -1.6796875000000002 5.635208333333334 -0.8311458333333335 1.8422916666666667 -1.9864583333333334 3.5036458333333336 -3.4678125000000004 4.985 -1.8064583333333335 1.8780208333333335 -3.73875 3.070104166666667 -5.797708333333334 3.576145833333334 -2.0590625 0.5061458333333334 -4.190625 0.7586458333333334 -6.393854166666666 0.7586458333333334h-6.502083333333334L8.573333333333334 74.60000000000001H1.0416666666666667l7.74840625 -38.85041666666667H23.311562500000004Zm64.23739583333334 0c4.2621875000000005 0.035729166666666666 7.350729166666667 1.2645833333333334 9.265625 3.684479166666667 1.914791666666667 2.42 2.546666666666667 5.725208333333334 1.8964583333333334 9.915833333333333 -0.2525 1.9148958333333335 -0.8128125 3.7929166666666667 -1.6797916666666668 5.635208333333334 -0.8311458333333335 1.8422916666666667 -1.9863541666666669 3.5036458333333336 -3.4678125000000004 4.985 -1.8064583333333335 1.8780208333333335 -3.73875 3.070104166666667 -5.797708333333334 3.576145833333334 -2.0590625 0.5061458333333334 -4.190625 0.7586458333333334 -6.393750000000001 0.7586458333333334H74.86979166666667l-2.0590625 10.295104166666668h-7.531666666666667l7.7484375000000005 -38.85041666666667H87.54895833333333Zm-37.01833333333333 -10.349270833333334 -2.113229166666667 10.349270833333334h6.718958333333333c3.6845833333333333 0.07260416666666666 6.429583333333333 0.8311458333333335 8.236041666666667 2.275729166666667 1.8422916666666667 1.4445833333333336 2.384166666666667 4.190625 1.6255208333333335 8.236041666666667l-3.6303125000000005 18.043541666666666h-7.585833333333333l3.4678125000000004 -17.230729166666666c0.36083333333333334 -1.8065625 0.2525 -3.0885416666666665 -0.3251041666666667 -3.847083333333334 -0.5777083333333334 -0.7586458333333334 -1.8239583333333333 -1.1379166666666667 -3.73875 -1.1379166666666667l-6.014479166666668 -0.05416666666666667 -4.443229166666668 22.269895833333337h-7.477395833333334l7.802500000000001 -38.904583333333335h7.4775ZM17.459583333333335 41.9265625c-0.43343750000000003 0.035833333333333335 -0.8485416666666667 0.05427083333333334 -1.24625 0.05427083333333334l-1.0945833333333335 -0.00010416666666666667 -3.240104166666667 16.20125c0.21666666666666667 0.035833333333333335 0.43343750000000003 0.05416666666666667 0.6502083333333334 0.05416666666666667h0.7585416666666667c3.4678125000000004 0.035833333333333335 6.358020833333334 -0.3066666666666667 8.669583333333335 -1.0294791666666667 2.3114583333333334 -0.7585416666666667 3.8655208333333335 -3.3952083333333336 4.659791666666667 -7.9109375 0.6503125 -3.7929166666666667 0 -5.978750000000001 -1.9506250000000003 -6.556354166666668 -1.914791666666667 -0.5776041666666667 -4.316354166666667 -0.8485416666666667 -7.2065625 -0.8128125Zm64.2375 0c-0.4335416666666667 0.035833333333333335 -0.8486458333333333 0.05427083333333334 -1.24625 0.05427083333333334l-1.0947916666666666 -0.00010416666666666667 -3.24 16.20125c0.21677083333333336 0.035833333333333335 0.43343750000000003 0.05416666666666667 0.6502083333333334 0.05416666666666667h0.7585416666666667c3.4678125000000004 0.035833333333333335 6.358020833333334 -0.3066666666666667 8.669583333333335 -1.0294791666666667 2.3115625000000004 -0.7585416666666667 3.8655208333333335 -3.3952083333333336 4.659895833333334 -7.9109375 0.6502083333333334 -3.7929166666666667 0 -5.978750000000001 -1.9506250000000003 -6.556354166666668 -1.9148958333333335 -0.5776041666666667 -4.316458333333333 -0.8485416666666667 -7.2065625 -0.8128125Z" stroke-width="1"></path></svg>