<svg xmlns="http://www.w3.org/2000/svg" fill="none" viewBox="0 0 100 100" id="Astro-Icon--Streamline-Svg-Logos.svg" height="100" width="100"><desc>Astro Icon Streamline Icon: https://streamlinehq.com</desc><path fill="#000" d="M64.48958333333333 3.495104166666667c0.7996875000000001 0.9928437500000001 1.2075 2.3325625 2.0231250000000003 5.0120000000000005L84.3315625 67.04197916666666c-6.588125000000001 -3.4177083333333336 -13.750104166666668 -5.882604166666668 -21.303229166666668 -7.212395833333334L51.4265625 20.623541666666668c-0.1897916666666667 -0.6414583333333334 -0.7791666666666667 -1.0815625 -1.4480208333333333 -1.0815625 -0.6707291666666667 0 -1.2610416666666666 0.4423958333333334 -1.449375 1.0860416666666668L37.0678125 59.80979166666667c-7.588125000000001 1.3238541666666668 -14.7828125 3.7932291666666673 -21.3990625 7.223333333333334L33.574895833333336 8.493552083333334c0.8182291666666667 -2.674822916666667 1.2272916666666667 -4.012260416666667 2.0271875 -5.003270833333334 0.7060416666666667 -0.8748958333333334 1.624375 -1.5543645833333333 2.667604166666667 -1.9736666666666667C39.45135416666667 1.0416666666666667 40.849895833333335 1.0416666666666667 43.64708333333334 1.0416666666666667h12.789479166666668c2.8008333333333337 0 4.20125 0 5.383958333333333 0.4759375 1.0440625000000001 0.4201666666666667 1.9630208333333334 1.1010208333333333 2.6690625000000003 1.9775000000000003Z" stroke-width="1"></path><path fill="#FF5D01" d="M66.6221875 69.82750000000001c-2.9373958333333334 2.5118750000000003 -8.800520833333334 4.224895833333334 -15.554062500000002 4.224895833333334 -8.2890625 0 -15.236458333333335 -2.5805208333333334 -17.080104166666665 -6.051145833333334 -0.6590625000000001 1.9890625000000002 -0.8067708333333333 4.265520833333333 -0.8067708333333333 5.7196875 0 0 -0.4342708333333334 7.140520833333333 4.5320833333333335 12.107083333333334 0 -2.5788541666666664 2.0907291666666667 -4.669479166666667 4.669479166666667 -4.669479166666667 4.4201041666666665 0 4.415208333333333 3.856354166666667 4.411145833333334 6.985 -0.00010416666666666667 0.09375 -0.00020833333333333335 0.186875 -0.00020833333333333335 0.27927083333333336 0 4.74875 2.9022916666666667 8.819479166666667 7.029791666666667 10.535416666666668 -0.6164583333333333 -1.2680208333333334 -0.9622916666666667 -2.6919791666666666 -0.9622916666666667 -4.196666666666667 0 -4.5290625 2.6589583333333335 -6.215416666666667 5.749270833333334 -8.175416666666667 2.45875 -1.5593750000000002 5.190625 -3.2919791666666667 7.073333333333334 -6.767500000000001 0.9822916666666667 -1.8134375 1.5401041666666666 -3.890416666666667 1.5401041666666666 -6.097708333333333 0 -1.3573958333333334 -0.21083333333333334 -2.6656250000000004 -0.6017708333333334 -3.8934375Z" stroke-width="1"></path></svg>