<svg xmlns="http://www.w3.org/2000/svg" fill="none" viewBox="0 0 100 100" id="Css-3--Streamline-Svg-Logos.svg" height="100" width="100"><desc>Css 3 Streamline Icon: https://streamlinehq.com</desc><path fill="#264DE4" d="M49.9575 98.95822916666667 21.627916666666668 91.09375000000001l-6.313229166666667 -70.80927083333334h69.37052083333333l-6.319791666666667 70.79822916666667 -28.40791666666667 7.875520833333334Z" stroke-width="1"></path><path fill="#2965F1" d="m72.95541666666666 86.57447916666668 5.400729166666667 -60.50031250000001H50.00052083333334V92.93854166666668l22.954895833333335 -6.3640625Z" stroke-width="1"></path><path fill="#EBEBEB" d="m29.7871875 52.336354166666666 0.7783333333333333 8.684375000000001h19.43416666666667v-8.684375000000001h-20.212500000000002Z" stroke-width="1"></path><path fill="#EBEBEB" d="m28.223645833333336 34.7590625 0.7894791666666667 8.684479166666668h20.987083333333334v-8.684479166666668H28.223645833333336Z" stroke-width="1"></path><path fill="#EBEBEB" d="m50.000104166666674 74.89083333333335 -0.03802083333333334 0.010104166666666668 -9.671979166666667 -2.6115625000000002 -0.6183333333333334 -6.926354166666667h-8.7178125l1.2166666666666668 13.6359375 17.789479166666666 4.9384375 0.04 -0.011145833333333334v-9.035416666666666Z" stroke-width="1"></path><path fill="#000" d="M31.641145833333333 1.0416666666666667h10.518333333333334v4.398604166666667h-6.119791666666667v4.39859375h6.119791666666667V14.2375H31.641145833333333V1.0416666666666667Z" stroke-width="1"></path><path fill="#000" d="M44.26322916666667 1.0416666666666667h10.518333333333334v3.824875h-6.119791666666667v0.76496875h6.119791666666667v8.797239583333333H44.26322916666667V10.412593750000001h6.119791666666667v-0.76496875h-6.119791666666667V1.0416666666666667Z" stroke-width="1"></path><path fill="#000" d="M56.885312500000005 1.0416666666666667h10.518333333333334v3.824875h-6.119791666666667v0.76496875h6.119791666666667v8.797239583333333H56.885312500000005V10.412593750000001h6.119791666666667v-0.76496875h-6.119791666666667V1.0416666666666667Z" stroke-width="1"></path><path fill="#fff" d="m70.156875 52.3365625 1.5678125000000003 -17.577500000000004H49.970000000000006v8.684479166666668H62.20729166666667l-0.7902083333333334 8.893020833333335H49.970000000000006v8.684375000000001h10.693958333333333l-1.0080208333333334 11.263125 -9.685937500000001 2.6142708333333338v9.035104166666667l17.803645833333334 -4.934270833333334 0.13062500000000002 -1.4671875 2.040729166666667 -22.863333333333333 0.211875 -2.3320833333333333Z" stroke-width="1"></path></svg>