<svg xmlns="http://www.w3.org/2000/svg" fill="none" viewBox="0 0 100 100" id="Express--Streamline-Svg-Logos.svg" height="100" width="100"><desc>Express Streamline Icon: https://streamlinehq.com</desc><path fill="#222" d="M1.6789375000000002 57.9340625V47.036770833333335H15.2846875v-0.6372916666666667H1.6789375000000002v-9.941458333333333H16.145v-0.6372916666666667H1.0416666666666667v22.750625h15.230729166666666v-0.6372916666666667H1.6789375000000002Zm26.860958333333336 -15.740625000000001 -5.639791666666667 7.424270833333334 -5.512395833333334 -7.424270833333334h-0.8285416666666667l5.958541666666667 7.902187500000001 -6.532083333333334 8.475729166666667h0.7647916666666666l6.1496875 -7.997812500000001 6.1814583333333335 7.997812500000001h0.7965625000000001l-6.563854166666667 -8.475729166666667 5.990312500000001 -7.902187500000001h-0.7646875000000001Zm3.2501041666666666 21.985937500000002v-10.196354166666667h0.06375c0.3822916666666667 1.4869791666666667 1.1364583333333333 2.6817708333333337 2.262291666666667 3.5845833333333332 1.1258333333333335 0.9028125000000001 2.5596875000000003 1.3542708333333335 4.3015625 1.3542708333333335 1.1258333333333335 0 2.1242708333333336 -0.22843750000000002 2.9952083333333337 -0.6851041666666666 0.8709375 -0.4566666666666667 1.5984375000000002 -1.0780208333333334 2.1826041666666667 -1.8640625000000002 0.5841666666666667 -0.7859375 1.0303125 -1.699375 1.3382291666666668 -2.7402083333333334 0.30802083333333335 -1.0409375 0.46208333333333335 -2.1348958333333337 0.46208333333333335 -3.281979166666667 0 -1.2320833333333334 -0.15937500000000002 -2.3685416666666668 -0.4779166666666667 -3.4093750000000003 -0.31864583333333335 -1.0408333333333333 -0.7807291666666668 -1.9436458333333333 -1.3861458333333334 -2.7084375 -0.6054166666666667 -0.7646875000000001 -1.3382291666666668 -1.3594791666666668 -2.198541666666667 -1.7842708333333335 -0.8603125 -0.42489583333333336 -1.8321875 -0.6372916666666667 -2.915520833333334 -0.6372916666666667 -0.8284375 0 -1.5984375000000002 0.12208333333333334 -2.3101041666666666 0.3663541666666667 -0.7116666666666668 0.244375 -1.3435416666666669 0.5894791666666667 -1.8958333333333335 1.035625 -0.5523958333333334 0.4460416666666667 -1.0303125 0.9717708333333334 -1.4339583333333334 1.5771875000000002 -0.40354166666666674 0.6054166666666667 -0.7115625000000001 1.2692708333333333 -0.9239583333333334 1.9915625000000001h-0.06375v-4.5884374999999995h-0.6372916666666667v21.985937500000002h0.6372916666666667Zm6.627604166666667 -5.862916666666667c-1.9967708333333336 0 -3.600625 -0.6851041666666666 -4.811354166666667 -2.0552083333333337 -1.2108333333333334 -1.3702083333333333 -1.8162500000000001 -3.3404166666666666 -1.8162500000000001 -5.910729166666667 0 -1.0620833333333335 0.14864583333333334 -2.0711458333333335 0.4460416666666667 -3.026979166666667 0.2973958333333333 -0.9559375 0.7276041666666667 -1.7950000000000002 1.2905208333333333 -2.5172916666666665 0.5629166666666667 -0.7221875000000001 1.2585416666666667 -1.2957291666666668 2.0870833333333336 -1.720625 0.8284375 -0.4247916666666667 1.7631250000000003 -0.6371875 2.8039583333333336 -0.6371875 1.0620833333333335 0 1.9914583333333333 0.21239583333333334 2.7880208333333334 0.6371875 0.7966666666666667 0.42489583333333336 1.4551041666666669 1.0037500000000001 1.9756250000000002 1.7365625000000002 0.5204166666666666 0.7329166666666668 0.9133333333333334 1.571979166666667 1.1788541666666668 2.5172916666666665 0.265625 0.9452083333333334 0.3983333333333334 1.9489583333333336 0.3983333333333334 3.011041666666667 0 0.9559375 -0.12208333333333334 1.9065625000000002 -0.3664583333333334 2.851770833333333 -0.24427083333333333 0.9453125 -0.6212500000000001 1.7950000000000002 -1.1311458333333335 2.549166666666667 -0.5097916666666668 0.7540625000000001 -1.1630208333333334 1.3701041666666667 -1.9595833333333335 1.8480208333333334 -0.7965625000000001 0.47802083333333334 -1.7578125000000002 0.7169791666666667 -2.8836458333333335 0.7169791666666667Zm10.483125000000001 0.2548958333333334v-9.272291666666668c0 -0.8921875000000001 0.12739583333333335 -1.7631250000000003 0.3822916666666667 -2.6128125000000004 0.255 -0.8496875 0.6479166666666667 -1.5985416666666667 1.1789583333333333 -2.246354166666667 0.5311458333333334 -0.6479166666666667 1.2055208333333334 -1.1577083333333333 2.0233333333333334 -1.5294791666666667 0.8179166666666667 -0.37177083333333333 1.7896875 -0.5257291666666667 2.915520833333334 -0.4619791666666667v-0.6372916666666667c-0.9770833333333333 -0.02125 -1.8320833333333333 0.08489583333333334 -2.5650000000000004 0.31864583333333335 -0.7328125000000001 0.23364583333333336 -1.3647916666666668 0.5522916666666667 -1.8958333333333335 0.9558333333333334 -0.5310416666666667 0.40364583333333337 -0.9559375 0.87625 -1.2745833333333334 1.4179166666666667 -0.31864583333333335 0.5417708333333334 -0.5522916666666667 1.1206250000000002 -0.7009375000000001 1.7365625000000002h-0.06375v-4.046666666666667h-0.6372916666666667v16.377916666666668h0.6372916666666667Zm7.296770833333334 -8.061458333333334h13.701250000000002c0.0425 -1.1258333333333335 -0.06895833333333333 -2.209270833333333 -0.33458333333333334 -3.2501041666666666 -0.2655208333333334 -1.0409375 -0.6903125 -1.9648958333333335 -1.2744791666666668 -2.7721875000000002 -0.5841666666666667 -0.8071875000000001 -1.3382291666666668 -1.455 -2.262291666666667 -1.9436458333333333 -0.9240625000000001 -0.48854166666666665 -2.0233333333333334 -0.7328125000000001 -3.2979166666666666 -0.7328125000000001 -0.9134375000000001 0 -1.8056250000000003 0.19114583333333335 -2.6765625 0.5735416666666667 -0.8709375 0.3822916666666667 -1.635625 0.9398958333333334 -2.294166666666667 1.6728125000000003 -0.6585416666666667 0.7328125000000001 -1.1895833333333332 1.6303125 -1.5931250000000001 2.6925000000000003 -0.40364583333333337 1.0620833333333335 -0.6054166666666667 2.2729166666666667 -0.6054166666666667 3.6323958333333333 0 1.2108333333333334 0.13802083333333334 2.341979166666667 0.4141666666666667 3.3934375 0.27614583333333337 1.0515625000000002 0.7010416666666668 1.9650000000000003 1.2745833333333334 2.7403125000000004s1.3116666666666668 1.3754166666666667 2.214479166666667 1.8003125c0.9028125000000001 0.4247916666666667 1.9914583333333333 0.6266666666666667 3.266041666666667 0.6054166666666667 1.869375 0 3.44125 -0.5257291666666667 4.715833333333333 -1.5772916666666668 1.2744791666666668 -1.0514583333333334 2.0286458333333335 -2.533125 2.262291666666667 -4.445h-0.6372916666666667c-0.27614583333333337 1.8056250000000003 -0.9823958333333335 3.1597916666666666 -2.118958333333333 4.0626041666666675 -1.1364583333333333 0.9028125000000001 -2.5650000000000004 1.3542708333333335 -4.2856250000000005 1.3542708333333335 -1.1683333333333334 0 -2.156041666666667 -0.20187500000000003 -2.963229166666667 -0.6054166666666667 -0.8072916666666667 -0.40364583333333337 -1.4657291666666667 -0.9559375 -1.9756250000000002 -1.656875 -0.5097916666666668 -0.7010416666666668 -0.8868750000000001 -1.524166666666667 -1.1311458333333335 -2.4694791666666664 -0.24427083333333333 -0.9453125 -0.3769791666666667 -1.9702083333333333 -0.3982291666666667 -3.074791666666667Zm13.0640625 -0.6372916666666667H56.1975c0.06364583333333335 -1.1470833333333335 0.27614583333333337 -2.1773958333333336 0.6371875 -3.0907291666666667 0.3611458333333334 -0.9134375000000001 0.8337500000000001 -1.6941666666666668 1.4180208333333333 -2.341979166666667 0.5841666666666667 -0.6479166666666667 1.2638541666666667 -1.1417708333333334 2.039166666666667 -1.481666666666667 0.7754166666666666 -0.33989583333333334 1.6091666666666666 -0.5097916666666668 2.5013541666666668 -0.5097916666666668 1.0620833333333335 0 1.9967708333333336 0.19645833333333335 2.8039583333333336 0.589375 0.8071875000000001 0.3930208333333334 1.481666666666667 0.9293750000000001 2.0233333333333334 1.6091666666666666 0.5416666666666667 0.6797916666666667 0.950625 1.4710416666666666 1.2267708333333334 2.373854166666667 0.27614583333333337 0.9028125000000001 0.41427083333333337 1.8533333333333333 0.41427083333333337 2.851770833333333Zm13.860625 -2.8358333333333334h0.6371875c0 -1.8268750000000002 -0.5310416666666667 -3.154479166666667 -1.5931250000000001 -3.9830208333333337 -1.0620833333333335 -0.8284375 -2.5065625000000002 -1.2426041666666667 -4.3334375000000005 -1.2426041666666667 -1.0196875 0 -1.8800000000000001 0.12739583333333335 -2.5809375 0.3822916666666667 -0.7010416666666668 0.255 -1.2745833333333334 0.5841666666666667 -1.720625 0.9878125000000001 -0.44614583333333335 0.40364583333333337 -0.7647916666666666 0.8496875 -0.9559375 1.3382291666666668 -0.19114583333333335 0.4886458333333334 -0.28677083333333336 0.9559375 -0.28677083333333336 1.4020833333333336 0 0.8920833333333335 0.15937500000000002 1.6037500000000002 0.4779166666666667 2.1347916666666666 0.31864583333333335 0.5310416666666667 0.8179166666666667 0.9453125 1.4976041666666668 1.2427083333333335 0.46739583333333334 0.21239583333333334 0.9984375000000001 0.40354166666666674 1.593229166666667 0.5735416666666667 0.5947916666666666 0.16989583333333333 1.2851041666666667 0.3505208333333334 2.0711458333333335 0.5416666666666667 0.7009375000000001 0.16989583333333333 1.391354166666667 0.33989583333333334 2.071041666666667 0.5097916666666668 0.6797916666666667 0.17 1.2798958333333332 0.3983333333333334 1.8003125 0.6851041666666666 0.5204166666666666 0.28677083333333336 0.9453125 0.6532291666666667 1.2745833333333334 1.0992708333333334 0.32927083333333335 0.44614583333333335 0.4938541666666667 1.0303125 0.4938541666666667 1.7525 0 0.7010416666666668 -0.16458333333333336 1.2958333333333334 -0.4938541666666667 1.7843750000000003 -0.32927083333333335 0.48854166666666665 -0.7488541666666667 0.8868750000000001 -1.2586458333333332 1.1948958333333335 -0.5097916666666668 0.30802083333333335 -1.0780208333333334 0.5310416666666667 -1.7046875000000001 0.6690625 -0.6266666666666667 0.138125 -1.2373958333333335 0.2071875 -1.8321875 0.2071875 -1.9330208333333334 0 -3.4146875 -0.43020833333333336 -4.444895833333334 -1.2905208333333333 -1.0303125 -0.8603125 -1.5454166666666669 -2.214479166666667 -1.5454166666666669 -4.0626041666666675h-0.6372916666666667c0 2.0605208333333334 0.5576041666666667 3.5687500000000005 1.6728125000000003 4.524687500000001 1.1153125000000002 0.9558333333333334 2.766875 1.4338541666666669 4.954791666666667 1.4338541666666669 0.7010416666666668 0 1.4073958333333334 -0.07968750000000001 2.118958333333333 -0.23906250000000004 0.7116666666666668 -0.15927083333333336 1.3488541666666667 -0.4194791666666667 1.9117708333333334 -0.780625 0.5630208333333333 -0.3611458333333334 1.0196875 -0.8284375 1.3702083333333333 -1.4019791666666668 0.3505208333333334 -0.5735416666666667 0.5257291666666667 -1.2745833333333334 0.5257291666666667 -2.1030208333333333 0 -0.7859375 -0.15406250000000002 -1.4232291666666668 -0.4619791666666667 -1.9117708333333334 -0.30802083333333335 -0.48854166666666665 -0.7116666666666668 -0.8921875000000001 -1.2108333333333334 -1.2108333333333334 -0.4992708333333334 -0.31864583333333335 -1.0621875 -0.5682291666666667 -1.6887500000000002 -0.74875 -0.6266666666666667 -0.180625 -1.2586458333333332 -0.3558333333333334 -1.8959375000000003 -0.5258333333333334 -0.8921875000000001 -0.23364583333333336 -1.6728125000000003 -0.4354166666666667 -2.341979166666667 -0.6053125 -0.6691666666666667 -0.17 -1.2904166666666665 -0.37177083333333333 -1.8639583333333336 -0.6054166666666667 -0.5523958333333334 -0.23375 -0.9931250000000001 -0.5682291666666667 -1.3223958333333334 -1.0037500000000001 -0.32927083333333335 -0.4354166666666667 -0.4938541666666667 -1.0567708333333334 -0.4938541666666667 -1.8639583333333336 0 -0.14875000000000002 0.0425 -0.41427083333333337 0.12739583333333335 -0.7966666666666667 0.085 -0.3822916666666667 0.28677083333333336 -0.77 0.6054166666666667 -1.1630208333333334 0.31864583333333335 -0.3929166666666667 0.8072916666666667 -0.7434375000000001 1.4657291666666667 -1.0514583333333334 0.6585416666666667 -0.30802083333333335 1.5613541666666666 -0.4619791666666667 2.7084375 -0.4619791666666667 0.7859375 0 1.502916666666667 0.08489583333333334 2.1507291666666672 0.2548958333333334 0.6479166666666667 0.16989583333333333 1.2055208333333334 0.44072916666666667 1.6729166666666668 0.8125000000000001 0.4672916666666667 0.37177083333333333 0.8284375 0.8443750000000001 1.0833333333333335 1.4179166666666667 0.2548958333333334 0.5735416666666667 0.3823958333333333 1.2744791666666668 0.3823958333333333 2.1030208333333333Zm14.752812500000001 0h0.6372916666666667c0 -1.8268750000000002 -0.5311458333333334 -3.154479166666667 -1.593229166666667 -3.9830208333333337 -1.0620833333333335 -0.8284375 -2.5065625000000002 -1.2426041666666667 -4.3334375000000005 -1.2426041666666667 -1.0196875 0 -1.8798958333333335 0.12739583333333335 -2.5809375 0.3822916666666667 -0.7010416666666668 0.255 -1.2745833333333334 0.5841666666666667 -1.720625 0.9878125000000001 -0.44614583333333335 0.40364583333333337 -0.7647916666666666 0.8496875 -0.9559375 1.3382291666666668 -0.19114583333333335 0.4886458333333334 -0.28677083333333336 0.9559375 -0.28677083333333336 1.4020833333333336 0 0.8920833333333335 0.15937500000000002 1.6037500000000002 0.4779166666666667 2.1347916666666666 0.31864583333333335 0.5310416666666667 0.8179166666666667 0.9453125 1.4976041666666668 1.2427083333333335 0.46739583333333334 0.21239583333333334 0.9984375000000001 0.40354166666666674 1.593229166666667 0.5735416666666667 0.5947916666666666 0.16989583333333333 1.2851041666666667 0.3505208333333334 2.0711458333333335 0.5416666666666667 0.7009375000000001 0.16989583333333333 1.391354166666667 0.33989583333333334 2.0711458333333335 0.5097916666666668 0.6796875 0.17 1.2797916666666667 0.3983333333333334 1.8002083333333334 0.6851041666666666 0.5205208333333333 0.28677083333333336 0.9453125 0.6532291666666667 1.2745833333333334 1.0992708333333334 0.32927083333333335 0.44614583333333335 0.4938541666666667 1.0303125 0.4938541666666667 1.7525 0 0.7010416666666668 -0.16458333333333336 1.2958333333333334 -0.4938541666666667 1.7843750000000003 -0.32927083333333335 0.48854166666666665 -0.7488541666666667 0.8868750000000001 -1.2586458333333332 1.1948958333333335 -0.5097916666666668 0.30802083333333335 -1.0780208333333334 0.5310416666666667 -1.7046875000000001 0.6690625 -0.6266666666666667 0.138125 -1.2373958333333335 0.2071875 -1.8321875 0.2071875 -1.9330208333333334 0 -3.4146875 -0.43020833333333336 -4.444895833333334 -1.2905208333333333 -1.0303125 -0.8603125 -1.5454166666666669 -2.214479166666667 -1.5454166666666669 -4.0626041666666675h-0.6372916666666667c0 2.0605208333333334 0.5576041666666667 3.5687500000000005 1.6729166666666668 4.524687500000001 1.1152083333333334 0.9558333333333334 2.7667708333333336 1.4338541666666669 4.9546875 1.4338541666666669 0.7010416666666668 0 1.4073958333333334 -0.07968750000000001 2.118958333333333 -0.23906250000000004 0.7116666666666668 -0.15927083333333336 1.3488541666666667 -0.4194791666666667 1.911875 -0.780625 0.5629166666666667 -0.3611458333333334 1.0195833333333335 -0.8284375 1.3701041666666667 -1.4019791666666668 0.3505208333333334 -0.5735416666666667 0.5257291666666667 -1.2745833333333334 0.5257291666666667 -2.1030208333333333 0 -0.7859375 -0.15395833333333334 -1.4232291666666668 -0.4619791666666667 -1.9117708333333334 -0.30802083333333335 -0.48854166666666665 -0.7116666666666668 -0.8921875000000001 -1.2108333333333334 -1.2108333333333334 -0.4992708333333334 -0.31864583333333335 -1.0621875 -0.5682291666666667 -1.6887500000000002 -0.74875 -0.6266666666666667 -0.180625 -1.2586458333333332 -0.3558333333333334 -1.8959375000000003 -0.5258333333333334 -0.8921875000000001 -0.23364583333333336 -1.6728125000000003 -0.4354166666666667 -2.341979166666667 -0.6053125 -0.6690625 -0.17 -1.2904166666666665 -0.37177083333333333 -1.8639583333333336 -0.6054166666666667 -0.5522916666666667 -0.23375 -0.9931250000000001 -0.5682291666666667 -1.3223958333333334 -1.0037500000000001 -0.32927083333333335 -0.4354166666666667 -0.4938541666666667 -1.0567708333333334 -0.4938541666666667 -1.8639583333333336 0 -0.14875000000000002 0.0425 -0.41427083333333337 0.12739583333333335 -0.7966666666666667 0.085 -0.3822916666666667 0.28677083333333336 -0.77 0.6054166666666667 -1.1630208333333334 0.31864583333333335 -0.3929166666666667 0.8072916666666667 -0.7434375000000001 1.4657291666666667 -1.0514583333333334 0.6585416666666667 -0.30802083333333335 1.5613541666666666 -0.4619791666666667 2.7084375 -0.4619791666666667 0.7859375 0 1.502916666666667 0.08489583333333334 2.1508333333333334 0.2548958333333334 0.6478125 0.16989583333333333 1.2054166666666668 0.44072916666666667 1.6728125000000003 0.8125000000000001 0.4672916666666667 0.37177083333333333 0.8284375 0.8443750000000001 1.0833333333333335 1.4179166666666667 0.2548958333333334 0.5735416666666667 0.3823958333333333 1.2744791666666668 0.3823958333333333 2.1030208333333333Z" stroke-width="1"></path></svg>