<svg xmlns="http://www.w3.org/2000/svg" fill="none" viewBox="0 0 100 100" id="Javascript--Streamline-Svg-Logos.svg" height="100" width="100"><desc>Javascript Streamline Icon: https://streamlinehq.com</desc><path fill="#F7DF1E" d="M1.0416666666666667 1.0416666666666667h97.91666666666667v97.91666666666667H1.0416666666666667V1.0416666666666667Z" stroke-width="1"></path><path fill="#000" d="m26.788020833333334 82.86791666666667 7.4932291666666675 -4.534791666666667c1.445625 2.563125 2.760625 4.7316666666666665 5.9148958333333335 4.7316666666666665 3.0236458333333336 0 4.929895833333334 -1.1827083333333335 4.929895833333334 -5.783229166666667V45.99479166666667h9.201666666666668v31.416875c0 9.530520833333334 -5.586458333333334 13.868541666666669 -13.737083333333334 13.868541666666669 -7.3609375 0 -11.633854166666667 -3.8123958333333334 -13.802812500000002 -8.413124999999999" stroke-width="1"></path><path fill="#000" d="m59.32510416666667 81.88197916666668 7.492395833333334 -4.338020833333334c1.9722916666666668 3.2209375000000002 4.535729166666667 5.5869791666666675 9.070625000000001 5.5869791666666675 3.8127083333333336 0 6.243958333333334 -1.9062500000000002 6.243958333333334 -4.535416666666667 0 -3.1548958333333337 -2.4975000000000005 -4.272395833333333 -6.7041666666666675 -6.112187500000001l-2.299791666666667 -0.9865625000000001c-6.638854166666667 -2.8258333333333336 -11.042812500000002 -6.375000000000001 -11.042812500000002 -13.868125000000001 0 -6.901458333333334 5.258125 -12.159895833333335 13.474375 -12.159895833333335 5.849895833333334 0 10.056354166666667 2.0378125000000002 13.079583333333334 7.361770833333334l-7.164479166666667 4.6007291666666665c-1.5775000000000001 -2.826041666666667 -3.2859375 -3.943229166666667 -5.9148958333333335 -3.943229166666667 -2.6948958333333333 0 -4.403958333333334 1.7088541666666668 -4.403958333333334 3.943229166666667 0 2.760625 1.7090625000000002 3.878229166666667 5.652291666666667 5.587291666666667l2.3003125 0.9858333333333335c7.821666666666667 3.352395833333334 12.225520833333334 6.769791666666666 12.225520833333334 14.459687500000001 0 8.282187500000001 -6.506875 12.816979166666668 -15.248541666666668 12.816979166666668 -8.544583333333334 0 -14.0659375 -4.074895833333334 -16.760416666666668 -9.3990625Z" stroke-width="1"></path></svg>