<svg xmlns="http://www.w3.org/2000/svg" fill="none" viewBox="0 0 100 100" id="Laravel--Streamline-Svg-Logos.svg" height="100" width="100"><desc>Laravel Streamline Icon: https://streamlinehq.com</desc><path fill="#FF2D20" d="M97.50416666666668 23.193020833333335c0.035208333333333335 0.13052083333333334 0.053541666666666675 0.2651041666666667 0.053541666666666675 0.4003125v21.01760416666667c0 0.5490625 -0.29364583333333333 1.0561458333333333 -0.77 1.3293750000000002l-17.640416666666667 10.15625v20.13072916666667c0 0.5478125 -0.2911458333333334 1.0535416666666668 -0.7662500000000001 1.3293750000000002L41.55822916666666 98.75427083333335c-0.08427083333333334 0.04791666666666667 -0.17625 0.07854166666666666 -0.2682291666666667 0.11104166666666668 -0.034479166666666665 0.011562500000000002 -0.06697916666666667 0.03260416666666667 -0.1034375 0.0421875 -0.2573958333333333 0.06781250000000001 -0.5279166666666667 0.06781250000000001 -0.7853125000000001 0 -0.0421875 -0.011458333333333334 -0.08052083333333333 -0.034479166666666665 -0.12072916666666668 -0.04979166666666667 -0.08427083333333334 -0.030625000000000003 -0.17239583333333336 -0.0575 -0.2528125 -0.1034375L3.2124791666666668 77.55666666666669c-0.47602083333333334 -0.27343750000000006 -0.7700520833333333 -0.7804166666666666 -0.7700520833333333 -1.3293750000000002V13.174583333333334c0 -0.13791666666666666 0.019156250000000003 -0.27197916666666666 0.05363541666666667 -0.40229166666666666 0.011489583333333334 -0.0440625 0.038312500000000006 -0.08427083333333334 0.05363541666666667 -0.12833333333333335 0.02872916666666667 -0.08041666666666668 0.05555208333333334 -0.1628125 0.09768750000000001 -0.23750000000000002 0.028739583333333336 -0.04979166666666667 0.07087500000000001 -0.09000000000000001 0.10535416666666667 -0.13604166666666667 0.0440625 -0.061250000000000006 0.08429166666666668 -0.12447916666666667 0.13601041666666666 -0.17812500000000003 0.0440625 -0.0440625 0.10152083333333335 -0.07666666666666667 0.15133333333333335 -0.11489583333333334 0.05555208333333334 -0.046041666666666675 0.10535416666666667 -0.09583333333333334 0.1685625 -0.1321875h0.0019166666666666668L21.61916666666667 1.2463854166666668c0.47427083333333336 -0.27295833333333336 1.0580208333333334 -0.27295833333333336 1.5323958333333336 0L41.56010416666667 11.845208333333334h0.003854166666666667c0.061250000000000006 0.03833333333333334 0.11302083333333333 0.08614583333333334 0.16854166666666667 0.13020833333333334 0.04979166666666667 0.03833333333333334 0.10541666666666667 0.0728125 0.14947916666666666 0.115 0.05364583333333334 0.05552083333333334 0.09187500000000001 0.11875000000000001 0.13791666666666666 0.18000000000000002 0.0325 0.046041666666666675 0.0765625 0.08625000000000001 0.1034375 0.13604166666666667 0.0440625 0.07666666666666667 0.06895833333333333 0.15708333333333332 0.09958333333333334 0.23750000000000002 0.015312500000000001 0.0440625 0.042083333333333334 0.08427083333333334 0.05364583333333334 0.1303125 0.035208333333333335 0.13052083333333334 0.05322916666666667 0.2651041666666667 0.05364583333333334 0.4003125v39.38208333333334l15.339791666666668 -8.832708333333334V23.591458333333335c0 -0.13416666666666668 0.01916666666666667 -0.27010416666666665 0.05364583333333334 -0.39843750000000006 0.013437500000000002 -0.046041666666666675 0.03833333333333334 -0.08625000000000001 0.05364583333333334 -0.1303125 0.030625000000000003 -0.08041666666666668 0.0575 -0.1628125 0.09958333333333334 -0.23750000000000002 0.02875 -0.04979166666666667 0.07083333333333335 -0.09000000000000001 0.1034375 -0.13604166666666667 0.045937500000000006 -0.061250000000000006 0.08427083333333334 -0.12447916666666667 0.13791666666666666 -0.17812500000000003 0.0440625 -0.0440625 0.09958333333333334 -0.07666666666666667 0.14947916666666666 -0.11489583333333334 0.05739583333333334 -0.046041666666666675 0.10718750000000002 -0.09583333333333334 0.16854166666666667 -0.1321875h0.0018750000000000001l18.410520833333333 -10.598854166666667c0.4741666666666667 -0.2733333333333334 1.0581250000000002 -0.2733333333333334 1.5323958333333336 0L96.78958333333334 22.263958333333335c0.06520833333333334 0.03833333333333334 0.115 0.08614583333333334 0.17239583333333336 0.13020833333333334 0.04791666666666667 0.03833333333333334 0.1034375 0.0728125 0.14750000000000002 0.115 0.05364583333333334 0.05552083333333334 0.09197916666666668 0.11875000000000001 0.13791666666666666 0.18000000000000002 0.034479166666666665 0.046041666666666675 0.07666666666666667 0.08625000000000001 0.1034375 0.13604166666666667 0.0440625 0.0746875 0.06895833333333333 0.15708333333333332 0.0996875 0.23750000000000002 0.0171875 0.0440625 0.042083333333333334 0.08427083333333334 0.05364583333333334 0.1303125ZM94.48906250000002 43.723958333333336V26.24635416666667l-6.442083333333334 3.708541666666667 -8.8996875 5.124166666666667v17.47760416666667l15.343645833333335 -8.832708333333334h-0.0018750000000000001ZM76.08052083333334 75.34031250000001V57.85125l-8.754166666666666 4.999583333333334 -24.998125 14.267187500000002v17.653750000000002l33.75229166666667 -19.431458333333335ZM5.51115625 15.827604166666667v59.512708333333336L39.25958333333334 94.76989583333334v-17.65l-17.6309375 -9.978125000000002 -0.005729166666666667 -0.003854166666666667 -0.007604166666666667 -0.003854166666666667c-0.059375000000000004 -0.034479166666666665 -0.10916666666666668 -0.08427083333333334 -0.1647916666666667 -0.12645833333333334 -0.04781250000000001 -0.038229166666666675 -0.1034375 -0.06895833333333333 -0.14552083333333332 -0.11104166666666668l-0.003854166666666667 -0.005729166666666667c-0.04979166666666667 -0.04791666666666667 -0.08427083333333334 -0.10729166666666667 -0.12645833333333334 -0.1609375 -0.03833333333333334 -0.051770833333333335 -0.08427083333333334 -0.09583333333333334 -0.11489583333333334 -0.149375l-0.001979166666666667 -0.005833333333333334c-0.034479166666666665 -0.05739583333333334 -0.05552083333333334 -0.12635416666666668 -0.08041666666666668 -0.19156250000000002 -0.024895833333333336 -0.05739583333333334 -0.0575 -0.11104166666666668 -0.0728125 -0.17239583333333336v-0.0018750000000000001c-0.01916666666666667 -0.0728125 -0.02291666666666667 -0.149375 -0.030625000000000003 -0.22416666666666668 -0.007604166666666667 -0.05739583333333334 -0.023020833333333338 -0.11489583333333334 -0.023020833333333338 -0.17239583333333336V24.6603125l-8.897708333333334 -5.1260416666666675 -6.442072916666667 -3.7046875000000004v-0.001979166666666667ZM22.38729166666667 4.345760416666667 7.049354166666667 13.174583333333334l15.334083333333334 8.828854166666668 15.335937500000002 -8.830729166666666 -15.335937500000002 -8.826947916666667h0.003854166666666667Zm7.976354166666668 55.099239583333336 8.8978125 -5.122187500000001V15.827604166666667l-6.442083333333334 3.708541666666667 -8.8996875 5.124166666666667v38.49510416666667l6.443958333333335 -3.7104166666666667Zm47.25114583333334 -44.68052083333334 -15.335937500000002 8.828854166666668 15.335937500000002 8.828854166666668 15.334166666666668 -8.830729166666666 -15.334166666666668 -8.826979166666668Zm-1.5342708333333335 20.314583333333335 -8.899791666666667 -5.124166666666667 -6.441979166666668 -3.708541666666667V43.723958333333336l8.8978125 5.1222916666666665 6.443958333333335 3.7104166666666667V35.0790625Zm-35.288541666666674 39.38583333333334L63.28645833333334 61.623020833333335l11.244375000000002 -6.417187500000001 -15.324583333333335 -8.823020833333334 -17.64416666666667 10.158229166666667 -16.081145833333334 9.257916666666668 15.311041666666668 8.6659375Z" stroke-width="1"></path></svg>