<svg xmlns="http://www.w3.org/2000/svg" fill="none" viewBox="0 0 100 100" id="Prisma--Streamline-Svg-Logos.svg" height="100" width="100"><desc>Prisma Streamline Icon: https://streamlinehq.com</desc><path fill="#000" d="M90.00833333333334 75.64020833333333 56.3353125 4.130427083333333c-0.8523958333333335 -1.7929062500000001 -2.619166666666667 -2.9741666666666666 -4.601770833333334 -3.0767604166666667 -1.9870833333333335 -0.13314375 -3.8833333333333337 0.8498958333333334 -4.919895833333333 2.550510416666667L10.291458333333333 62.75791666666667c-1.1338125000000001 1.8235416666666668 -1.1099583333333334 4.1384375 0.061197916666666664 5.938125L28.208645833333335 96.3478125c1.3873958333333336 2.1317708333333334 4.011770833333334 3.0968750000000003 6.4496875000000005 2.3717708333333336l51.818020833333335 -15.3275c1.578541666666667 -0.46156250000000004 2.879479166666667 -1.5847916666666668 3.56625 -3.079166666666667 0.6775 -1.4872916666666667 0.6658333333333334 -3.1972916666666666 -0.03177083333333333 -4.675208333333334l-0.0025 0.0025Zm-7.538854166666668 3.066979166666667L38.49885416666667 91.70937500000001c-1.3413541666666668 0.39895833333333336 -2.6288541666666667 -0.7636458333333334 -2.3497916666666665 -2.1172916666666666l15.709375000000001 -75.22041666666668c0.29375 -1.4075 2.2371875 -1.6302083333333335 2.8515625 -0.3280208333333334l29.08125 61.75562500000001c0.2602083333333333 0.5569791666666667 0.26333333333333336 1.1998958333333334 0.008541666666666668 1.7593750000000001 -0.2547916666666667 0.5594791666666667 -0.7418750000000001 0.9791666666666666 -1.3328125000000002 1.1485416666666668h0.0025Z" stroke-width="1"></path></svg>