<svg xmlns="http://www.w3.org/2000/svg" fill="none" viewBox="0 0 100 100" id="Typescript-Icon--Streamline-Svg-Logos.svg" height="100" width="100"><desc>Typescript Icon Streamline Icon: https://streamlinehq.com</desc><path fill="#3178C6" d="M8.69140625 1.0416666666666667H91.30854166666667C95.53343750000002 1.0416666666666667 98.95833333333334 4.466572916666667 98.95833333333334 8.69140625V91.30854166666667C98.95833333333334 95.53343750000002 95.53343750000002 98.95833333333334 91.30854166666667 98.95833333333334H8.69140625C4.466572916666667 98.95833333333334 1.0416666666666667 95.53343750000002 1.0416666666666667 91.30854166666667V8.69140625C1.0416666666666667 4.466572916666667 4.466572916666667 1.0416666666666667 8.69140625 1.0416666666666667Z" stroke-width="1"></path><path fill="#fff" d="M58.61281250000001 77.72072916666667v10.564270833333333c1.7181250000000001 0.8805208333333334 3.7503125 1.540729166666667 6.096145833333333 1.9809375 2.3457291666666666 0.4402083333333333 4.818125 0.6602083333333334 7.4175 0.6602083333333334 2.5328125000000004 0 4.9394791666666675 -0.24218750000000003 7.219062500000001 -0.7263541666666667 2.2796875 -0.4842708333333334 4.278958333333334 -1.2820833333333332 5.996666666666667 -2.3932291666666665 1.7181250000000001 -1.1115625 3.0782291666666666 -2.5641666666666665 4.080729166666667 -4.358125 1.0020833333333334 -1.7934375000000002 1.5032291666666668 -4.010729166666667 1.5032291666666668 -6.651770833333334 0 -1.9146875 -0.28656250000000005 -3.593125 -0.8590625000000001 -5.0346875 -0.5726041666666667 -1.4415625 -1.3987500000000002 -2.7236458333333338 -2.478229166666667 -3.8459375000000002 -1.0789583333333335 -1.1226041666666668 -2.373229166666667 -2.1292708333333334 -3.881770833333334 -3.0208333333333335 -1.5089583333333336 -0.8912500000000001 -3.210625 -1.7330208333333335 -5.105104166666667 -2.5252083333333335 -1.3876041666666667 -0.5726041666666667 -2.6318750000000004 -1.1279166666666667 -3.7334375 -1.6672916666666668 -1.1011458333333333 -0.5392708333333335 -2.0375 -1.0892708333333334 -2.808229166666667 -1.6507291666666668 -0.7710416666666667 -0.5611458333333333 -1.3658333333333335 -1.1555208333333333 -1.7842708333333335 -1.7828125000000001 -0.4184375 -0.6272916666666667 -0.6277083333333334 -1.3367708333333335 -0.6277083333333334 -2.1292708333333334 0 -0.7263541666666667 0.18708333333333335 -1.3808333333333334 0.5615625000000001 -1.9640625 0.374375 -0.5833333333333335 0.9034375 -1.0839583333333334 1.5861458333333334 -1.5020833333333334 0.6827083333333334 -0.4184375 1.5195833333333335 -0.7428125 2.511041666666667 -0.9741666666666667 0.9909375000000001 -0.23104166666666667 2.0925000000000002 -0.3465625 3.303854166666667 -0.3465625 0.8812500000000001 0 1.8118750000000001 0.06614583333333333 2.7917708333333335 0.19812500000000002 0.9803125000000001 0.13197916666666668 1.9660416666666667 0.3354166666666667 2.957395833333334 0.6108333333333335 0.9910416666666667 0.275 1.9545833333333336 0.6215625 2.8908333333333336 1.04 0.9359375 0.41802083333333334 1.8007291666666667 0.9022916666666667 2.5936458333333334 1.452291666666667v-9.870833333333335c-1.6079166666666669 -0.6161458333333334 -3.3646875000000005 -1.0729166666666667 -5.269895833333334 -1.3701041666666667 -1.9051041666666668 -0.2971875 -4.091458333333334 -0.44552083333333337 -6.5584375 -0.44552083333333337 -2.511041666666667 0 -4.889791666666667 0.26958333333333334 -7.136458333333334 0.8089583333333333 -2.246770833333333 0.5388541666666666 -4.223854166666667 1.3807291666666666 -5.930833333333334 2.525104166666667 -1.7070833333333335 1.1447916666666667 -3.0561458333333333 2.6028125 -4.0475 4.374583333333334 -0.9910416666666667 1.771666666666667 -1.4867708333333334 3.889895833333334 -1.4867708333333334 6.355 0 3.1470833333333332 0.9084375 5.832187500000001 2.7260416666666667 8.055104166666666 1.8171875 2.2227083333333333 4.5756250000000005 4.104479166666667 8.276250000000001 5.6452083333333345 1.4538541666666667 0.594375 2.808541666666667 1.1772916666666668 4.063854166666667 1.7497916666666669 1.2557291666666668 0.5722916666666668 2.3405208333333336 1.16625 3.2545833333333336 1.7823958333333336 0.9141666666666668 0.6162500000000001 1.6355208333333335 1.2875 2.1641666666666666 2.013854166666667 0.5285416666666667 0.7263541666666667 0.7929166666666667 1.5517708333333335 0.7929166666666667 2.4762500000000003 0 0.6819791666666667 -0.16531250000000003 1.3148958333333334 -0.49572916666666667 1.8982291666666669 -0.3301041666666667 0.5829166666666666 -0.8315625000000001 1.0893750000000002 -1.5032291666666668 1.5184375 -0.6715625000000001 0.4291666666666667 -1.5088541666666666 0.7646875000000001 -2.5109375 1.0067708333333334 -1.0021875 0.24208333333333334 -2.1752083333333334 0.36333333333333334 -3.518958333333334 0.36333333333333334 -2.290729166666667 0 -4.559166666666667 -0.40156250000000004 -6.8059375 -1.2052083333333334 -2.2470833333333333 -0.8032291666666668 -4.328645833333334 -2.0080208333333336 -6.2448958333333335 -3.6148958333333336ZM41.0046875 51.431250000000006h13.585104166666667v-8.698541666666667H16.723645833333336v8.698541666666667h13.518854166666667v38.72989583333334h10.7621875V51.431250000000006Z" stroke-width="1"></path></svg>